<svg width="210" height="218" viewBox="0 0 210 218" fill="none" xmlns="http://www.w3.org/2000/svg">
<g filter="url(#filter0_d_5_25)">
<ellipse cx="104.51" cy="98.975" rx="84.51" ry="88.975" fill="white"/>
</g>
<path d="M99.5805 188.797C89.4857 188.157 87.0009 187.358 90.107 187.678C98.4358 188.288 106.799 188.181 115.111 187.358C129.007 186.002 142.567 182.16 155.18 176.003C165.285 170.808 174.77 164.421 183.445 156.973C189.812 151.535 195.093 147.537 198.199 147.537C198.354 147.537 198.665 147.697 198.82 147.697C201.305 148.177 200.218 153.454 192.142 160.651C184.222 167.687 169.778 176.803 149.433 182.88C135.678 186.946 121.439 189.015 107.128 189.027C104.224 189.027 101.68 188.935 99.5805 188.797Z" fill="url(#paint0_linear_5_25)"/>
<path d="M167.136 158.892C159.992 167.528 152.848 173.285 153.314 174.245C153.625 175.204 164.652 170.726 175.057 160.811C185.618 150.896 187.637 140.181 183.909 140.661C180.027 140.821 174.436 150.416 167.136 158.892" fill="#DA9BC5"/>
<path d="M96.2986 189.597C93.9116 189.37 91.3723 189.051 88.5504 188.637H88.3952C83.3513 188.057 78.3639 187.041 73.4859 185.599C71.9328 185.119 70.6904 184.639 69.6032 184.319C67.1184 183.36 65.2548 182.72 64.3229 182.24C63.7701 181.938 62.6132 180.908 62.6132 180.908C62.6132 180.908 62.0092 180.576 62.6134 179.9C63.2176 179.223 76.0162 186.306 87.9292 187.358C99.8422 188.41 90.5694 187.678 91.3459 187.838C93.8308 187.998 96.471 188.157 99.1112 188.157C105.642 188.133 112.15 187.382 118.524 185.919C125.167 184.198 131.702 182.062 138.093 179.522C143.535 177.52 148.829 175.115 153.934 172.325C155.176 171.526 156.574 170.726 157.972 169.926C159.369 169.127 160.612 168.167 162.009 167.528C163.06 167.007 164.151 166.58 165.271 166.248C165.271 166.248 165.581 166.088 166.358 166.888H166.824C166.935 166.923 167.04 166.977 167.134 167.048V168.487C166.203 170.886 158.903 176.163 155.021 178.242L151.293 180.161C145.658 182.914 139.782 185.109 133.744 186.718C130.327 187.518 126.755 188.157 123.339 188.637H123.183C120.698 188.957 118.214 189.277 116.039 189.437C115.447 189.494 114.865 189.548 114.294 189.597H96.2986Z" fill="url(#paint1_linear_5_25)"/>
<path d="M95.0684 122.843C93.1055 122.843 91.1865 122.697 89.3115 122.404C87.4658 122.14 85.8398 121.803 84.4336 121.393V117.086C85.7812 117.584 87.3926 118.009 89.2676 118.361C91.1426 118.712 93.1055 118.888 95.1562 118.888C97.998 118.888 100.723 118.317 103.33 117.174C105.967 116.032 108.413 114.259 110.669 111.857C112.954 109.425 115.005 106.29 116.821 102.452C118.638 98.6146 120.19 94.0003 121.479 88.6097H121.216C120.19 90.1624 118.843 91.6273 117.173 93.0042C115.532 94.3519 113.613 95.4505 111.416 96.3001C109.248 97.1497 106.802 97.5745 104.077 97.5745C100.884 97.5745 98.1299 96.9153 95.8154 95.597C93.5303 94.2786 91.7871 92.4329 90.5859 90.0599C89.3848 87.6868 88.7842 84.9183 88.7842 81.7542C88.7842 78.9417 89.1357 76.2903 89.8389 73.8001C90.542 71.3099 91.5527 69.0247 92.8711 66.9446C94.1895 64.8646 95.7568 63.0775 97.5732 61.5833C99.3896 60.0599 101.411 58.888 103.638 58.0677C105.864 57.2181 108.237 56.7933 110.757 56.7933C114.448 56.7933 117.51 57.6136 119.941 59.2542C122.402 60.8948 124.233 63.1946 125.435 66.1536C126.636 69.0833 127.236 72.511 127.236 76.4368C127.236 79.6595 126.885 83.1019 126.182 86.764C125.508 90.3968 124.541 94.015 123.281 97.6185C122.021 101.193 120.513 104.533 118.755 107.638C117.026 110.714 115.093 113.307 112.954 115.416C111.636 116.735 110.259 117.863 108.823 118.8C107.388 119.738 105.908 120.514 104.385 121.129C102.891 121.715 101.353 122.14 99.7705 122.404C98.2178 122.697 96.6504 122.843 95.0684 122.843ZM104.736 93.7513C107.637 93.7513 110.273 93.18 112.646 92.0374C115.049 90.8948 117.056 89.4007 118.667 87.555C120.308 85.7093 121.436 83.7318 122.051 81.6224C122.314 80.7728 122.505 79.8792 122.622 78.9417C122.739 78.0042 122.798 76.9349 122.798 75.7337C122.798 73.0677 122.402 70.5921 121.611 68.3069C120.82 66.0218 119.531 64.1907 117.744 62.8138C115.957 61.4075 113.584 60.7044 110.625 60.7044C107.9 60.7044 105.454 61.2757 103.286 62.4183C101.147 63.5609 99.3311 65.1136 97.8369 67.0765C96.3428 69.0394 95.2002 71.2659 94.4092 73.7562C93.6182 76.2464 93.2227 78.8538 93.2227 81.5784C93.2227 85.387 94.248 88.3753 96.2988 90.5433C98.3496 92.6819 101.162 93.7513 104.736 93.7513Z" fill="#00609C"/>
<path d="M74.8209 150.211C73.987 150.211 73.3056 150.037 72.777 149.691C72.2484 149.345 71.861 148.875 71.6149 148.283C71.3688 147.686 71.2458 147.011 71.2458 146.259C71.2458 145.722 71.2913 145.195 71.3825 144.68C71.4782 144.161 71.6172 143.664 71.7995 143.19C71.9818 142.716 72.2096 142.281 72.4831 141.884C72.761 141.488 73.0823 141.144 73.4469 140.852C73.8161 140.556 74.2262 140.328 74.6774 140.169C75.1331 140.005 75.6344 139.922 76.1813 139.922C77.2523 139.922 78.0999 140.253 78.7243 140.914C79.3532 141.575 79.6676 142.552 79.6676 143.846C79.6676 144.288 79.6289 144.751 79.5514 145.234C79.4785 145.717 79.3623 146.198 79.2028 146.676C79.0433 147.15 78.8359 147.599 78.5807 148.023C78.3301 148.447 78.0247 148.823 77.6647 149.151C77.3092 149.479 76.8945 149.739 76.4206 149.93C75.9512 150.117 75.418 150.211 74.8209 150.211ZM74.8483 149.582C75.3314 149.582 75.7666 149.497 76.154 149.329C76.5459 149.16 76.8922 148.928 77.193 148.631C77.4984 148.335 77.7604 147.998 77.9791 147.62C78.1979 147.241 78.3779 146.838 78.5192 146.41C78.6605 145.981 78.7653 145.548 78.8336 145.111C78.902 144.669 78.9362 144.245 78.9362 143.839C78.9362 142.819 78.6992 142.017 78.2252 141.433C77.7558 140.85 77.0563 140.558 76.1266 140.558C75.6435 140.558 75.2038 140.638 74.8073 140.797C74.4153 140.952 74.0644 141.169 73.7545 141.447C73.4492 141.725 73.1849 142.048 72.9616 142.418C72.7383 142.787 72.5537 143.183 72.4079 143.607C72.262 144.031 72.1527 144.466 72.0797 144.913C72.0114 145.359 71.9772 145.801 71.9772 146.239C71.9772 146.904 72.0797 147.488 72.2848 147.989C72.4944 148.49 72.8112 148.882 73.235 149.165C73.6588 149.443 74.1966 149.582 74.8483 149.582ZM84.8776 150.211C84.2441 150.211 83.7018 150.106 83.2506 149.896C82.804 149.686 82.4599 149.379 82.2184 148.973C81.9814 148.568 81.8629 148.071 81.8629 147.483C81.8629 147.328 81.8743 147.157 81.8971 146.97C81.9245 146.779 81.9586 146.578 81.9997 146.369L83.3395 140.08H84.0436L82.7106 146.376C82.6696 146.567 82.6377 146.761 82.6149 146.957C82.5921 147.148 82.5807 147.317 82.5807 147.463C82.5807 148.142 82.7858 148.666 83.1959 149.035C83.6107 149.399 84.1826 149.582 84.9118 149.582C85.5179 149.582 86.0443 149.468 86.4909 149.24C86.9375 149.012 87.3089 148.672 87.6051 148.221C87.9059 147.766 88.1292 147.196 88.275 146.512L89.6559 140.08H90.3532L88.9791 146.594C88.806 147.401 88.5394 148.073 88.1793 148.611C87.8193 149.144 87.3636 149.545 86.8122 149.814C86.2607 150.078 85.6159 150.211 84.8776 150.211ZM93.0885 150.074L95.0778 140.715H92.0768L92.2135 140.08H98.9264L98.7965 140.715H95.7887L93.8063 150.074H93.0885ZM106.995 150.211C106.161 150.211 105.479 150.037 104.951 149.691C104.422 149.345 104.035 148.875 103.789 148.283C103.543 147.686 103.42 147.011 103.42 146.259C103.42 145.722 103.465 145.195 103.556 144.68C103.652 144.161 103.791 143.664 103.973 143.19C104.156 142.716 104.383 142.281 104.657 141.884C104.935 141.488 105.256 141.144 105.621 140.852C105.99 140.556 106.4 140.328 106.851 140.169C107.307 140.005 107.808 139.922 108.355 139.922C109.426 139.922 110.274 140.253 110.898 140.914C111.527 141.575 111.841 142.552 111.841 143.846C111.841 144.288 111.803 144.751 111.725 145.234C111.652 145.717 111.536 146.198 111.377 146.676C111.217 147.15 111.01 147.599 110.755 148.023C110.504 148.447 110.199 148.823 109.839 149.151C109.483 149.479 109.068 149.739 108.594 149.93C108.125 150.117 107.592 150.211 106.995 150.211ZM107.022 149.582C107.505 149.582 107.94 149.497 108.328 149.329C108.72 149.16 109.066 148.928 109.367 148.631C109.672 148.335 109.934 147.998 110.153 147.62C110.372 147.241 110.552 146.838 110.693 146.41C110.834 145.981 110.939 145.548 111.007 145.111C111.076 144.669 111.11 144.245 111.11 143.839C111.11 142.819 110.873 142.017 110.399 141.433C109.93 140.85 109.23 140.558 108.3 140.558C107.817 140.558 107.378 140.638 106.981 140.797C106.589 140.952 106.238 141.169 105.928 141.447C105.623 141.725 105.359 142.048 105.135 142.418C104.912 142.787 104.728 143.183 104.582 143.607C104.436 144.031 104.326 144.466 104.254 144.913C104.185 145.359 104.151 145.801 104.151 146.239C104.151 146.904 104.254 147.488 104.459 147.989C104.668 148.49 104.985 148.882 105.409 149.165C105.833 149.443 106.37 149.582 107.022 149.582ZM113.504 150.074L115.623 140.08H120.661L120.538 140.715H116.197L115.288 144.974H119.382L119.239 145.61H115.151L114.208 150.074H113.504ZM127.321 150.074L128.859 142.828C128.918 142.55 128.975 142.29 129.03 142.048C129.089 141.802 129.144 141.579 129.194 141.379C129.244 141.173 129.287 141 129.324 140.859C129.196 140.977 129.064 141.087 128.927 141.187C128.795 141.283 128.633 141.392 128.442 141.515L126.795 142.602L126.46 142.076L129.529 140.08H130.151L128.025 150.074H127.321ZM135.771 150.211C135.019 150.211 134.427 149.944 133.994 149.411C133.561 148.878 133.344 148.098 133.344 147.073C133.344 146.581 133.376 146.063 133.44 145.521C133.508 144.979 133.613 144.441 133.755 143.908C133.896 143.37 134.076 142.864 134.295 142.39C134.518 141.912 134.78 141.488 135.081 141.119C135.386 140.745 135.737 140.453 136.133 140.244C136.53 140.03 136.974 139.922 137.466 139.922C137.881 139.922 138.239 139.991 138.54 140.128C138.845 140.264 139.098 140.463 139.298 140.722C139.499 140.982 139.647 141.297 139.743 141.666C139.843 142.03 139.893 142.445 139.893 142.91C139.893 143.479 139.857 144.056 139.784 144.639C139.711 145.218 139.599 145.781 139.449 146.328C139.298 146.87 139.109 147.376 138.881 147.845C138.658 148.315 138.394 148.727 138.089 149.083C137.783 149.438 137.437 149.716 137.049 149.917C136.667 150.113 136.241 150.211 135.771 150.211ZM135.833 149.602C136.202 149.602 136.539 149.509 136.844 149.322C137.154 149.13 137.432 148.868 137.678 148.536C137.929 148.203 138.148 147.82 138.335 147.387C138.521 146.95 138.679 146.483 138.806 145.986C138.934 145.485 139.027 144.974 139.087 144.455C139.15 143.931 139.182 143.418 139.182 142.917C139.182 142.165 139.041 141.581 138.758 141.167C138.476 140.747 138.034 140.538 137.432 140.538C137.045 140.538 136.692 140.636 136.373 140.832C136.058 141.023 135.773 141.287 135.518 141.625C135.268 141.962 135.049 142.349 134.862 142.787C134.68 143.22 134.527 143.68 134.404 144.168C134.285 144.655 134.197 145.147 134.137 145.644C134.078 146.136 134.048 146.61 134.048 147.066C134.048 147.905 134.203 148.538 134.513 148.966C134.823 149.39 135.263 149.602 135.833 149.602Z" fill="#00609C"/>
<defs>
<filter id="filter0_d_5_25" x="0" y="0" width="209.02" height="217.95" filterUnits="userSpaceOnUse" color-interpolation-filters="sRGB">
<feFlood flood-opacity="0" result="BackgroundImageFix"/>
<feColorMatrix in="SourceAlpha" type="matrix" values="0 0 0 0 0 0 0 0 0 0 0 0 0 0 0 0 0 0 127 0" result="hardAlpha"/>
<feOffset dy="10"/>
<feGaussianBlur stdDeviation="10"/>
<feColorMatrix type="matrix" values="0 0 0 0 0.596078 0 0 0 0 0.792157 0 0 0 0 0.921569 0 0 0 1 0"/>
<feBlend mode="normal" in2="BackgroundImageFix" result="effect1_dropShadow_5_25"/>
<feBlend mode="normal" in="SourceGraphic" in2="effect1_dropShadow_5_25" result="shape"/>
</filter>
<linearGradient id="paint0_linear_5_25" x1="196.557" y1="170.056" x2="92.9946" y2="165.47" gradientUnits="userSpaceOnUse">
<stop stop-color="#97CAEB"/>
<stop offset="0.0667423" stop-color="#97CAEB"/>
<stop offset="0.1774" stop-color="#7CB7DD"/>
<stop offset="0.4178" stop-color="#4791C1"/>
<stop offset="0.6263" stop-color="#2076AD"/>
<stop offset="0.7924" stop-color="#0966A0"/>
<stop offset="0.8953" stop-color="#00609C"/>
<stop offset="1" stop-color="#00609C"/>
</linearGradient>
<linearGradient id="paint1_linear_5_25" x1="0.494114" y1="178.028" x2="167.03" y2="178.028" gradientUnits="userSpaceOnUse">
<stop stop-color="#97CAEB"/>
<stop offset="0.2666" stop-color="#97CAEB"/>
<stop offset="0.3397" stop-color="#7CB7DD"/>
<stop offset="0.4986" stop-color="#4791C1"/>
<stop offset="0.6363" stop-color="#2076AD"/>
<stop offset="0.7461" stop-color="#0966A0"/>
<stop offset="0.8141" stop-color="#00609C"/>
<stop offset="1" stop-color="#00609C"/>
</linearGradient>
</defs>
</svg>
