<svg width="35" height="35" viewBox="0 0 35 35" fill="none" xmlns="http://www.w3.org/2000/svg">
<path d="M27.7083 16.0417H11.4187L18.5354 8.92499C19.1042 8.35624 19.1042 7.4229 18.5354 6.85415C18.4005 6.71896 18.2402 6.6117 18.0638 6.53852C17.8874 6.46534 17.6983 6.42767 17.5073 6.42767C17.3163 6.42767 17.1272 6.46534 16.9507 6.53852C16.7743 6.6117 16.6141 6.71896 16.4792 6.85415L6.86874 16.4646C6.73355 16.5995 6.62629 16.7597 6.55311 16.9362C6.47993 17.1126 6.44226 17.3017 6.44226 17.4927C6.44226 17.6837 6.47993 17.8728 6.55311 18.0492C6.62629 18.2256 6.73355 18.3859 6.86874 18.5208L16.4792 28.1312C16.6142 28.2663 16.7745 28.3734 16.9509 28.4464C17.1273 28.5195 17.3163 28.5571 17.5073 28.5571C17.6982 28.5571 17.8873 28.5195 18.0637 28.4464C18.2401 28.3734 18.4004 28.2663 18.5354 28.1312C18.6704 27.9962 18.7775 27.8359 18.8506 27.6595C18.9237 27.4831 18.9613 27.294 18.9613 27.1031C18.9613 26.9122 18.9237 26.7231 18.8506 26.5467C18.7775 26.3703 18.6704 26.21 18.5354 26.075L11.4187 18.9583H27.7083C28.5104 18.9583 29.1667 18.3021 29.1667 17.5C29.1667 16.6979 28.5104 16.0417 27.7083 16.0417Z" fill="black"/>
</svg>
