<svg width="35" height="35" viewBox="0 0 35 35" fill="none" xmlns="http://www.w3.org/2000/svg">
<path d="M9.07812 7.01606C8.80307 6.75041 8.4347 6.60342 8.05233 6.60674C7.66996 6.61007 7.30419 6.76344 7.0338 7.03383C6.76341 7.30421 6.61004 7.66998 6.60672 8.05235C6.6034 8.43472 6.75039 8.8031 7.01604 9.07814L15.4379 17.5L7.01458 25.9219C6.87529 26.0564 6.76419 26.2173 6.68776 26.3953C6.61133 26.5732 6.5711 26.7645 6.56942 26.9582C6.56774 27.1518 6.60464 27.3439 6.67796 27.5231C6.75129 27.7023 6.85958 27.8651 6.9965 28.0021C7.13343 28.139 7.29625 28.2473 7.47548 28.3206C7.6547 28.3939 7.84673 28.4308 8.04037 28.4291C8.23401 28.4275 8.42537 28.3872 8.60329 28.3108C8.78122 28.2344 8.94213 28.1233 9.07666 27.984L17.5 19.5621L25.9219 27.984C26.1969 28.2496 26.5653 28.3966 26.9477 28.3933C27.33 28.39 27.6958 28.2366 27.9662 27.9662C28.2366 27.6958 28.3899 27.3301 28.3933 26.9477C28.3966 26.5653 28.2496 26.1969 27.984 25.9219L19.5621 17.5L27.984 9.07814C28.2496 8.8031 28.3966 8.43472 28.3933 8.05235C28.3899 7.66998 28.2366 7.30421 27.9662 7.03383C27.6958 6.76344 27.33 6.61007 26.9477 6.60674C26.5653 6.60342 26.1969 6.75041 25.9219 7.01606L17.5 15.4379L9.07812 7.01606Z" fill="black"/>
</svg>
