<svg width="210" height="219" viewBox="0 0 210 219" fill="none" xmlns="http://www.w3.org/2000/svg">
<g opacity="0.8">
<g filter="url(#filter0_d_0_760)">
<ellipse cx="104.534" cy="99.7033" rx="84.51" ry="89.1747" fill="white"/>
</g>
<path d="M99.6045 189.727C89.5097 189.086 87.0248 188.285 90.1309 188.605C98.4597 189.217 106.823 189.11 115.135 188.285C129.031 186.926 142.59 183.075 155.203 176.905C165.309 171.697 174.794 165.297 183.469 157.831C189.836 152.382 195.117 148.375 198.223 148.375C198.378 148.375 198.689 148.535 198.844 148.535C201.329 149.016 200.242 154.305 192.166 161.518C184.245 168.57 169.802 177.706 149.457 183.797C135.702 187.872 121.463 189.946 107.152 189.958C104.248 189.958 101.704 189.865 99.6045 189.727Z" fill="url(#paint0_linear_0_760)"/>
<path d="M167.16 159.755C160.016 168.41 152.872 174.18 153.338 175.142C153.649 176.104 164.676 171.616 175.081 161.678C185.642 151.741 187.661 141.002 183.933 141.483C180.051 141.643 174.46 151.26 167.16 159.755" fill="#DA9BC5"/>
<path d="M96.3225 190.529C93.9355 190.301 91.3962 189.982 88.5744 189.567H88.4191C83.3753 188.986 78.3878 187.967 73.5098 186.522C71.9568 186.041 70.7143 185.56 69.6272 185.239C67.1423 184.278 65.2787 183.636 64.3469 183.156C63.794 182.852 62.6371 181.82 62.6371 181.82C62.6371 181.82 62.0332 181.488 62.6374 180.81C63.2416 180.132 76.0401 187.231 87.9531 188.285C99.8661 189.339 90.5933 188.605 91.3699 188.765C93.8547 188.926 96.4949 189.086 99.1351 189.086C105.666 189.061 112.174 188.309 118.548 186.842C125.191 185.118 131.726 182.976 138.117 180.431C143.559 178.425 148.853 176.014 153.958 173.218C155.2 172.417 156.598 171.615 157.995 170.814C159.393 170.013 160.636 169.051 162.033 168.41C163.084 167.889 164.175 167.46 165.295 167.128C165.295 167.128 165.605 166.967 166.382 167.769H166.848C166.959 167.804 167.064 167.858 167.158 167.929V169.372C166.227 171.776 158.927 177.065 155.045 179.149L151.317 181.072C145.682 183.831 139.806 186.031 133.768 187.644C130.351 188.445 126.779 189.086 123.363 189.567H123.207C120.722 189.887 118.238 190.208 116.063 190.368C115.471 190.426 114.889 190.479 114.318 190.529H96.3225Z" fill="url(#paint1_linear_0_760)"/>
<path fill-rule="evenodd" clip-rule="evenodd" d="M112.491 48.0261C111.143 48.9893 108.665 50.4729 105.692 51.7146C102.682 52.9718 99.2924 53.9269 96.1276 53.9269L94.2496 53.9269V55.9086C94.2496 69.5541 98.7917 86.5102 112.383 96.4366C113.012 96.9896 113.937 97.0598 114.646 96.5468C128.347 86.6328 132.921 69.6045 132.921 55.9098V53.9282L131.043 53.9282C127.877 53.9281 124.487 52.9729 121.477 51.7154C118.503 50.4734 116.025 48.9896 114.677 48.0262C114.576 47.9504 114.47 47.8859 114.359 47.8331C114.11 47.7139 113.846 47.6562 113.584 47.6564C113.321 47.6562 113.057 47.7139 112.808 47.8331C112.697 47.8859 112.591 47.9504 112.491 48.0261ZM113.589 92.4734C124.505 83.9118 128.74 69.9615 129.134 57.8014C125.949 57.5075 122.8 56.5306 120.094 55.4005C117.479 54.3079 115.195 53.037 113.584 51.9946C111.973 53.0368 109.689 54.3074 107.074 55.3997C104.369 56.5295 101.22 57.5062 98.0363 57.8001C98.4303 69.9618 102.668 83.9145 113.589 92.4734ZM49.1943 94.4272C48.1572 94.4272 47.3163 95.3144 47.3163 96.4088C47.3163 97.5033 48.1572 98.3905 49.1943 98.3905H72.0898V132.894H55.484C54.4468 132.894 53.606 133.781 53.606 134.875C53.606 135.97 54.4468 136.857 55.484 136.857H75.8458V133.287H82.9501L103.762 140.596L103.902 140.621C103.979 140.635 104.067 140.652 104.167 140.671C106.086 141.035 112.108 142.176 117.243 138.989C121.919 136.086 143.897 123.421 154.035 118.072L154.128 118.023L154.216 117.962C155.611 117.008 157.05 115.647 157.874 113.906C158.747 112.058 158.876 109.864 157.693 107.652C156.315 105.073 154.254 103.89 152.084 103.647C150.034 103.417 148.002 104.03 146.44 104.73C145.857 104.991 144.045 105.94 141.641 107.2L141.64 107.2C140.201 107.954 138.551 108.818 136.825 109.713C133.388 111.494 129.591 113.427 126.343 114.971C126.371 114.62 126.384 114.261 126.384 113.896C126.384 111.411 125.308 109.652 123.764 108.608C122.336 107.641 120.641 107.368 119.326 107.368H103.266C101.147 106.577 96.9159 104.762 94.4881 102.969C91.3121 100.623 87.5557 100.168 85.9175 100.232H75.8458V94.4272H49.1943ZM123.522 120.281C122.36 120.982 120.984 121.211 119.594 121.211C119.013 121.211 117.959 121.208 116.626 121.203L116.608 121.203L116.592 121.203H116.591H116.591C112.499 121.189 105.811 121.166 102.082 121.209C101.36 121.351 100.339 121.663 99.5112 122.132C98.5276 122.69 98.4117 123.11 98.4066 123.195C98.3419 124.288 97.4503 125.118 96.4151 125.05C95.38 124.981 94.5932 124.041 94.6579 122.948C94.7916 120.691 96.4964 119.343 97.7323 118.641C99.0716 117.881 100.591 117.452 101.599 117.275L101.741 117.25L101.886 117.248C105.615 117.202 112.509 117.225 116.651 117.24L116.661 117.24C117.986 117.244 119.028 117.248 119.594 117.248C121.012 117.248 121.648 116.924 121.959 116.603C122.263 116.288 122.628 115.588 122.628 113.896C122.628 112.79 122.227 112.276 121.737 111.944C121.133 111.535 120.237 111.331 119.326 111.331H102.635L102.339 111.224C100.291 110.483 95.338 108.434 92.3342 106.215C89.9902 104.484 87.0813 104.145 86.0366 104.193L85.9959 104.195H75.8458V129.324H83.5586L104.681 136.741L104.739 136.752C106.68 137.11 111.446 137.988 115.338 135.573C120.079 132.63 142.007 119.994 152.257 114.579C153.299 113.851 154.109 112.989 154.513 112.136C154.877 111.367 154.941 110.571 154.422 109.599C153.67 108.194 152.714 107.703 151.687 107.588C150.54 107.459 149.194 107.802 147.907 108.379C147.423 108.595 145.84 109.425 143.619 110.589L143.618 110.589L143.617 110.59L143.614 110.591L143.605 110.596C142.132 111.368 140.379 112.286 138.481 113.27C133.795 115.699 128.322 118.472 124.472 120.147C124.16 120.282 123.834 120.323 123.522 120.281ZM122.747 63.923C123.48 64.6969 123.48 65.9516 122.747 66.7255L114.367 75.5673C114.115 75.8333 113.809 76.0079 113.486 76.091C113.455 76.0992 113.423 76.1064 113.391 76.1128C112.801 76.231 112.168 76.0492 111.711 75.5673L107.821 71.4629C107.088 70.689 107.088 69.4343 107.821 68.6604C108.555 67.8865 109.744 67.8865 110.477 68.6604L113.039 71.3636L120.091 63.923C120.824 63.1491 122.013 63.1491 122.747 63.923Z" fill="#00609C"/>
</g>
<defs>
<filter id="filter0_d_0_760" x="0.0239258" y="0.528564" width="209.02" height="218.349" filterUnits="userSpaceOnUse" color-interpolation-filters="sRGB">
<feFlood flood-opacity="0" result="BackgroundImageFix"/>
<feColorMatrix in="SourceAlpha" type="matrix" values="0 0 0 0 0 0 0 0 0 0 0 0 0 0 0 0 0 0 127 0" result="hardAlpha"/>
<feOffset dy="10"/>
<feGaussianBlur stdDeviation="10"/>
<feColorMatrix type="matrix" values="0 0 0 0 0.596078 0 0 0 0 0.792157 0 0 0 0 0.921569 0 0 0 1 0"/>
<feBlend mode="normal" in2="BackgroundImageFix" result="effect1_dropShadow_0_760"/>
<feBlend mode="normal" in="SourceGraphic" in2="effect1_dropShadow_0_760" result="shape"/>
</filter>
<linearGradient id="paint0_linear_0_760" x1="196.581" y1="170.944" x2="93.0176" y2="166.368" gradientUnits="userSpaceOnUse">
<stop stop-color="#97CAEB"/>
<stop offset="0.0667423" stop-color="#97CAEB"/>
<stop offset="0.1774" stop-color="#7CB7DD"/>
<stop offset="0.4178" stop-color="#4791C1"/>
<stop offset="0.6263" stop-color="#2076AD"/>
<stop offset="0.7924" stop-color="#0966A0"/>
<stop offset="0.8953" stop-color="#00609C"/>
<stop offset="1" stop-color="#00609C"/>
</linearGradient>
<linearGradient id="paint1_linear_0_760" x1="0.51804" y1="178.934" x2="167.054" y2="178.934" gradientUnits="userSpaceOnUse">
<stop stop-color="#97CAEB"/>
<stop offset="0.2666" stop-color="#97CAEB"/>
<stop offset="0.3397" stop-color="#7CB7DD"/>
<stop offset="0.4986" stop-color="#4791C1"/>
<stop offset="0.6363" stop-color="#2076AD"/>
<stop offset="0.7461" stop-color="#0966A0"/>
<stop offset="0.8141" stop-color="#00609C"/>
<stop offset="1" stop-color="#00609C"/>
</linearGradient>
</defs>
</svg>
