<svg width="210" height="219" viewBox="0 0 210 219" fill="none" xmlns="http://www.w3.org/2000/svg">
<g filter="url(#filter0_d_5_26)">
<ellipse cx="104.51" cy="99.1747" rx="84.51" ry="89.1747" fill="white"/>
</g>
<path d="M99.5805 189.199C89.4857 188.557 87.0009 187.756 90.107 188.077C98.4358 188.688 106.799 188.581 115.111 187.756C129.007 186.397 142.567 182.546 155.18 176.376C165.285 171.169 174.77 164.768 183.445 157.303C189.812 151.853 195.093 147.846 198.199 147.846C198.354 147.846 198.665 148.007 198.82 148.007C201.305 148.487 200.218 153.777 192.142 160.989C184.222 168.042 169.778 177.178 149.433 183.268C135.678 187.344 121.439 189.417 107.128 189.429C104.224 189.429 101.68 189.336 99.5805 189.199Z" fill="url(#paint0_linear_5_26)"/>
<path d="M167.136 159.226C159.992 167.882 152.848 173.652 153.314 174.613C153.625 175.575 164.652 171.087 175.057 161.15C185.618 151.212 187.637 140.474 183.909 140.954C180.027 141.115 174.436 150.732 167.136 159.226" fill="#DA9BC5"/>
<path d="M96.2986 190C93.9116 189.772 91.3723 189.453 88.5504 189.038H88.3952C83.3513 188.457 78.3639 187.439 73.4859 185.993C71.9328 185.512 70.6904 185.031 69.6032 184.711C67.1184 183.749 65.2548 183.108 64.3229 182.627C63.7701 182.324 62.6132 181.291 62.6132 181.291C62.6132 181.291 62.0092 180.959 62.6134 180.281C63.2176 179.603 76.0162 186.702 87.9292 187.756C99.8422 188.81 90.5694 188.077 91.3459 188.237C93.8308 188.397 96.471 188.557 99.1112 188.557C105.642 188.533 112.15 187.78 118.524 186.314C125.167 184.589 131.702 182.448 138.093 179.902C143.535 177.896 148.829 175.486 153.934 172.69C155.176 171.888 156.574 171.087 157.972 170.285C159.369 169.484 160.612 168.522 162.009 167.881C163.06 167.36 164.151 166.931 165.271 166.599C165.271 166.599 165.581 166.439 166.358 167.24H166.824C166.935 167.275 167.04 167.329 167.134 167.4V168.843C166.203 171.247 158.903 176.536 155.021 178.62L151.293 180.543C145.658 183.302 139.782 185.502 133.744 187.115C130.327 187.916 126.755 188.557 123.339 189.038H123.183C120.698 189.359 118.214 189.679 116.039 189.84C115.447 189.897 114.865 189.951 114.294 190H96.2986Z" fill="url(#paint1_linear_5_26)"/>
<path fill-rule="evenodd" clip-rule="evenodd" d="M112.131 57.4274C111.134 55.8553 109.725 53.7663 107.706 52.388C105.78 51.0731 103.206 50.3388 99.6147 51.7137C95.2635 53.3794 93.4651 57.1564 93.555 61.5211C93.6472 65.9973 95.7652 70.8917 99.1319 74.039L99.9255 74.781L99.9256 74.7811C105.987 80.4488 110.703 84.8578 113.707 87.176C116.71 84.8578 121.426 80.4489 127.487 74.7812L127.488 74.781L128.281 74.0391C131.648 70.8917 133.766 65.9973 133.858 61.5211C133.948 57.1564 132.149 53.3794 127.798 51.7136C124.207 50.3388 121.633 51.0731 119.707 52.388C117.688 53.7663 116.279 55.8553 115.282 57.4274C115.209 57.5491 115.123 57.6634 115.023 57.7676C114.868 57.9311 114.69 58.0614 114.499 58.1563C113.988 58.4111 113.406 58.4 112.914 58.1562C112.723 58.0613 112.545 57.9311 112.39 57.7676C112.291 57.6634 112.204 57.5491 112.131 57.4274ZM113.707 52.9671C112.708 51.6408 111.396 50.1816 109.728 49.0429C106.876 47.0957 103.091 46.1569 98.3468 47.973C92.1932 50.3289 89.697 55.888 89.8149 61.6081C89.9304 67.2167 92.5227 73.1556 96.6611 77.0244L97.728 78.022L97.7281 78.0221L97.7284 78.0224C104.261 84.1314 109.513 89.0428 112.644 91.2312C112.735 91.2975 112.83 91.3547 112.929 91.4026C113.178 91.5243 113.444 91.583 113.707 91.5827C114.084 91.5822 114.456 91.4611 114.769 91.2311C117.901 89.0428 123.152 84.1314 129.685 78.0225L129.685 78.0224L129.685 78.0219L130.752 77.0244C134.89 73.1556 137.482 67.2167 137.598 61.6081C137.716 55.8881 135.22 50.3289 129.066 47.973C124.323 46.1569 120.537 47.0957 117.685 49.0429C116.017 50.1816 114.705 51.6409 113.707 52.9671ZM50 96.1472C50 95.0493 50.8375 94.1593 51.8705 94.1593H78.4159V99.9824H88.4475C90.0792 99.9181 93.8207 100.374 96.984 102.728C99.4021 104.527 103.616 106.347 105.727 107.141H121.723C123.033 107.141 124.721 107.415 126.144 108.385C127.681 109.433 128.753 111.197 128.753 113.69C128.753 114.056 128.74 114.416 128.712 114.768C131.947 113.22 135.729 111.28 139.152 109.493C140.871 108.596 142.515 107.729 143.947 106.973L143.949 106.972C146.344 105.709 148.149 104.757 148.729 104.495C150.285 103.793 152.308 103.178 154.35 103.408C156.512 103.652 158.564 104.839 159.937 107.426C161.115 109.645 160.987 111.846 160.117 113.7C159.297 115.447 157.864 116.812 156.475 117.769L156.387 117.83L156.294 117.879C146.196 123.245 124.306 135.95 119.648 138.862C114.534 142.06 108.536 140.915 106.624 140.55C106.525 140.531 106.437 140.514 106.36 140.5L106.221 140.475L85.4919 133.143H78.4159V136.724H58.1352C57.1021 136.724 56.2646 135.834 56.2646 134.736C56.2646 133.638 57.1021 132.748 58.1352 132.748H74.6748V98.1352H51.8705C50.8375 98.1352 50 97.2451 50 96.1472ZM78.4159 129.167H86.098L107.136 136.608L107.194 136.619C109.128 136.978 113.875 137.859 117.751 135.435C122.473 132.483 144.314 119.807 154.523 114.375C155.561 113.644 156.368 112.78 156.77 111.925C157.132 111.153 157.196 110.354 156.679 109.379C155.931 107.969 154.978 107.477 153.955 107.362C152.812 107.233 151.472 107.577 150.191 108.155C149.709 108.372 148.131 109.205 145.918 110.373L145.917 110.373L145.916 110.374C144.446 111.149 142.697 112.073 140.802 113.062C136.134 115.498 130.684 118.281 126.848 119.961C126.538 120.097 126.213 120.137 125.903 120.096C124.745 120.799 123.374 121.028 121.99 121.028C121.406 121.028 120.343 121.025 118.999 121.02H118.999H118.998C114.922 121.006 108.262 120.983 104.548 121.026C103.828 121.169 102.811 121.481 101.987 121.952C101.007 122.512 100.892 122.934 100.887 123.019C100.822 124.115 99.9344 124.948 98.9034 124.879C97.8723 124.811 97.0887 123.867 97.1532 122.771C97.2863 120.507 98.9843 119.154 100.215 118.451C101.549 117.688 103.062 117.257 104.066 117.08L104.208 117.054L104.352 117.053C108.067 117.006 114.932 117.03 119.059 117.044H119.059H119.059C120.383 117.049 121.425 117.052 121.99 117.052C123.402 117.052 124.036 116.728 124.345 116.406C124.648 116.09 125.011 115.388 125.011 113.69C125.011 112.581 124.612 112.064 124.124 111.732C123.522 111.322 122.63 111.117 121.723 111.117H105.098L104.804 111.009C102.764 110.266 97.8305 108.211 94.8386 105.985C92.504 104.248 89.6067 103.908 88.5662 103.956L88.5256 103.958H78.4159V129.167Z" fill="#00609C"/>
<defs>
<filter id="filter0_d_5_26" x="0" y="0" width="209.02" height="218.349" filterUnits="userSpaceOnUse" color-interpolation-filters="sRGB">
<feFlood flood-opacity="0" result="BackgroundImageFix"/>
<feColorMatrix in="SourceAlpha" type="matrix" values="0 0 0 0 0 0 0 0 0 0 0 0 0 0 0 0 0 0 127 0" result="hardAlpha"/>
<feOffset dy="10"/>
<feGaussianBlur stdDeviation="10"/>
<feColorMatrix type="matrix" values="0 0 0 0 0.596078 0 0 0 0 0.792157 0 0 0 0 0.921569 0 0 0 1 0"/>
<feBlend mode="normal" in2="BackgroundImageFix" result="effect1_dropShadow_5_26"/>
<feBlend mode="normal" in="SourceGraphic" in2="effect1_dropShadow_5_26" result="shape"/>
</filter>
<linearGradient id="paint0_linear_5_26" x1="196.557" y1="170.415" x2="92.9937" y2="165.84" gradientUnits="userSpaceOnUse">
<stop stop-color="#97CAEB"/>
<stop offset="0.0667423" stop-color="#97CAEB"/>
<stop offset="0.1774" stop-color="#7CB7DD"/>
<stop offset="0.4178" stop-color="#4791C1"/>
<stop offset="0.6263" stop-color="#2076AD"/>
<stop offset="0.7924" stop-color="#0966A0"/>
<stop offset="0.8953" stop-color="#00609C"/>
<stop offset="1" stop-color="#00609C"/>
</linearGradient>
<linearGradient id="paint1_linear_5_26" x1="0.494114" y1="178.405" x2="167.03" y2="178.405" gradientUnits="userSpaceOnUse">
<stop stop-color="#97CAEB"/>
<stop offset="0.2666" stop-color="#97CAEB"/>
<stop offset="0.3397" stop-color="#7CB7DD"/>
<stop offset="0.4986" stop-color="#4791C1"/>
<stop offset="0.6363" stop-color="#2076AD"/>
<stop offset="0.7461" stop-color="#0966A0"/>
<stop offset="0.8141" stop-color="#00609C"/>
<stop offset="1" stop-color="#00609C"/>
</linearGradient>
</defs>
</svg>
