<svg width="92" height="92" viewBox="0 0 92 92" fill="none" xmlns="http://www.w3.org/2000/svg">
<path fill-rule="evenodd" clip-rule="evenodd" d="M84.7034 4.96059C84.7034 5.00796 84.6678 4.96059 84.6678 4.96059L84.7034 4.85909C84.7034 4.91322 84.7401 4.96059 84.7034 4.96059Z" fill="white"/>
<path fill-rule="evenodd" clip-rule="evenodd" d="M82.9609 8.15181C82.9964 8.39692 82.9219 8.6924 82.7717 8.74352C82.6181 8.83901 82.5075 8.83901 82.3957 8.78788C82.2455 8.64202 82.1728 8.44128 82.2478 8.2473C82.2862 8.04655 82.437 7.84957 82.6233 7.85257C82.774 7.85257 82.9265 8.00219 82.9609 8.15181Z" fill="white"/>
<path fill-rule="evenodd" clip-rule="evenodd" d="M27.7632 28.4262C26.8616 28.8653 26.3274 30.0427 26.136 31.175C25.944 32.3081 26.0517 33.4915 26.1601 34.6779C26.4541 36.4531 26.786 38.2282 27.7953 39.6666C28.0933 40.0613 28.5811 40.1665 28.9955 39.9688C29.3721 39.7275 29.7498 39.2372 29.7527 38.6455C29.6799 38.1523 29.5314 37.6561 29.3056 37.2102C28.8213 36.517 28.5977 35.6291 28.5272 34.7419C28.4934 33.708 28.7599 32.8231 29.1021 31.9863C29.3692 31.1021 29.6363 29.8675 29.2265 28.9292C28.8918 28.3375 28.2922 28.1811 27.7632 28.4262ZM29.779 28.6871C29.9659 29.1322 30.0748 29.6254 30.0364 30.1697C29.9584 30.9554 29.6913 31.6938 29.4632 32.4321C29.2356 33.02 29.0465 33.6118 29.0413 34.3027C28.9645 35.1395 29.1869 35.9283 29.5967 36.5741C30.0065 37.3154 30.3803 38.1553 30.2278 39.1417C30.0719 39.9785 29.4294 40.7131 28.7914 40.9071C27.7362 41.0477 26.9533 39.759 26.3927 38.7214C26.1331 38.1267 25.9107 37.4839 25.7261 36.7936C25.2819 35.0659 25.1025 33.0937 25.3335 31.172L25.5633 30.2878C25.9061 29.2532 26.5119 28.0728 27.3774 27.736C27.7907 27.5893 28.2435 27.4939 28.6923 27.5961C29.1434 27.6976 29.4804 28.1908 29.779 28.6871Z" fill="white"/>
<path fill-rule="evenodd" clip-rule="evenodd" d="M8.4881 52.9443C8.48351 53.8322 8.21871 54.5668 8.06337 55.4066C8.06337 55.8999 8.06108 56.342 8.13388 56.7878L8.13158 57.6246C7.97568 58.4615 7.89887 59.3968 7.66788 60.2329C7.66788 60.284 7.63177 60.284 7.59509 60.2329L7.55669 59.9885C7.63693 59.1487 7.63922 58.2126 7.64324 57.3254C7.6077 56.8833 7.68508 56.4412 7.68794 55.948L7.8427 54.4683C7.99574 53.9277 8.1098 53.3864 8.22616 52.7947C8.30124 52.5977 8.4881 52.7977 8.4881 52.9443Z" fill="white"/>
<path fill-rule="evenodd" clip-rule="evenodd" d="M10.7019 53.6014C10.5517 53.5984 10.4399 53.8435 10.401 53.9931C10.2863 54.4352 10.4354 54.8803 10.6583 55.2269C10.9202 55.3261 11.1845 55.1322 11.3736 54.887C11.5261 54.5397 11.1868 54.4893 11.0744 54.2916L10.7019 53.6014ZM11.7983 52.3253C11.5725 52.3734 11.3443 52.6659 11.2693 53.0095C11.342 53.3591 11.228 53.7982 11.565 53.9478C11.7158 54.05 11.8659 53.9508 12.0161 53.8049C12.2053 53.5125 12.2437 53.1177 12.1709 52.723C12.1353 52.523 11.9846 52.3253 11.7983 52.3253ZM12.5113 52.3283C12.7727 52.726 12.8071 53.3658 12.6179 53.8079C12.4288 54.1545 12.2007 54.5974 11.8631 54.5433C11.7496 54.8387 11.7857 55.1823 11.5604 55.3793C11.1822 55.6725 10.7695 55.9177 10.3184 55.7169C9.98137 55.5162 9.79451 55.0237 9.79738 54.5305C9.83521 53.9388 10.0639 53.4929 10.3648 53.1523L10.7041 53.0065L10.7431 52.6117C10.9345 52.1215 11.3105 51.829 11.7255 51.8321C12.0259 51.8321 12.3245 51.9817 12.5113 52.3283Z" fill="white"/>
<path fill-rule="evenodd" clip-rule="evenodd" d="M9.60872 54.5769C9.60413 56.0054 9.184 57.237 8.99255 58.5663L8.79595 60.6858C8.79366 61.0294 8.75469 61.373 8.6412 61.6685C8.45377 61.7196 8.37868 61.5189 8.3036 61.3692L8.26749 61.1241C8.27207 59.9918 8.31334 58.9069 8.54376 57.8731C8.6968 57.0874 9.07452 56.3964 9.15534 55.5596C9.23042 55.1686 9.19603 54.6724 9.38231 54.3318C9.49695 54.2333 9.57261 54.3799 9.60872 54.5769Z" fill="white"/>
<path fill-rule="evenodd" clip-rule="evenodd" d="M11.3316 56.1186C11.2507 57.4961 10.8702 58.7276 10.5263 59.9554C10.2976 60.7449 10.3681 61.6802 10.5159 62.4719C10.5532 62.6696 10.6277 62.8666 10.5887 63.0636C10.4775 63.1117 10.3268 63.1117 10.289 62.9621C10.0293 62.0749 9.80866 61.1839 9.92501 60.1494C10.1549 58.6735 10.951 57.5442 11.1447 56.0171C11.1447 55.8194 11.3316 56.0171 11.3316 56.1186Z" fill="white"/>
<path fill-rule="evenodd" clip-rule="evenodd" d="M33.8727 57.8501C33.6812 58.0441 33.3809 58.3403 33.3809 58.7313C33.4892 59.0779 33.6371 59.6252 33.977 59.7237C34.353 59.7748 34.6172 59.3801 34.8064 59.0403C34.9594 58.6486 34.6975 58.2989 34.6608 57.9516C34.4739 57.6561 34.1346 57.802 33.8727 57.8501ZM33.1694 54.7419C32.9413 55.0818 32.9023 55.6742 33.0531 56.0682C33.162 56.3675 33.3511 56.6637 33.5746 56.7111C33.875 56.7652 34.067 56.4216 34.2177 56.1254C34.4069 55.7314 34.3335 55.19 34.1472 54.8434C33.9598 54.3983 33.3975 54.3983 33.1694 54.7419ZM34.6344 55.0945C34.8574 55.6388 34.7416 56.3772 34.4768 56.8162C34.4378 57.0644 34.702 57.0644 34.8144 57.217C35.1119 57.7102 35.3354 58.3523 35.2196 59.0433C35.1801 59.3869 35.1027 59.7778 34.8402 59.9756C34.5009 60.2199 34.0503 60.5131 33.6738 60.2139C33.225 59.9658 33.002 59.3711 32.9653 58.7824C32.857 58.2891 32.9705 57.7448 33.3104 57.3538C33.3104 57.1568 33.0846 57.1531 33.0118 56.9561C32.6358 56.4599 32.3761 55.817 32.5292 55.0787C32.6065 54.7351 32.7206 54.4396 32.9464 54.2456C33.2107 54.0509 33.5505 53.9524 33.8486 54.0509C34.2246 54.2043 34.5226 54.602 34.6344 55.0945Z" fill="white"/>
<path fill-rule="evenodd" clip-rule="evenodd" d="M36.1183 60.1329C36.6038 60.8742 36.7878 61.7652 37.1225 62.5539L37.3461 63.3433C37.5685 63.8899 37.792 64.4817 38.2047 64.832C38.5027 65.2268 38.8781 65.6245 39.1017 66.0696C39.1017 66.2162 39.0633 66.3651 39.0237 66.4613C38.6122 66.4613 38.3503 66.0628 38.0488 65.7162C37.377 64.8734 36.8531 63.9313 36.558 62.8464C36.3 61.7111 36.0048 60.6261 35.4443 59.684L35.481 59.5344C35.7452 59.6367 35.9315 59.8848 36.1183 60.1329Z" fill="white"/>
<path fill-rule="evenodd" clip-rule="evenodd" d="M77.2986 61.797C77.8976 62.6399 78.1956 63.6263 78.152 64.8097C78.1136 65.2045 77.9245 65.5954 78.0328 66.0413C78.1784 66.8811 78.6272 67.524 79.0015 68.1668C79.0015 68.2653 79.0015 68.3157 78.9642 68.3638C78.363 67.8194 77.7302 67.0751 77.5067 66.1368C77.3983 65.4466 77.7376 64.9052 77.6282 64.215C77.4826 63.2256 77.4488 62.2421 76.8498 61.4978C76.8498 61.3993 76.8882 61.3481 76.961 61.3008C77.1117 61.4023 77.1868 61.6474 77.2986 61.797Z" fill="white"/>
<path fill-rule="evenodd" clip-rule="evenodd" d="M34.8651 63.3774C35.5391 64.1729 36.2114 64.9653 36.7714 65.8555C37.1451 66.5495 37.5934 67.0968 38.1562 67.4908C38.6044 67.6442 39.0171 68.0893 39.4298 68.4359C39.5026 68.5855 39.6166 68.7825 39.541 68.9803C39.3157 68.8306 39.1656 68.6329 38.9392 68.5314C38.2657 68.1818 37.5137 68.0795 36.9531 67.3863C36.4659 66.839 36.1312 66.1487 35.8716 65.5029C35.4979 64.7616 34.9734 64.0706 34.5642 63.3744C34.6031 63.1766 34.79 63.2789 34.8651 63.3774Z" fill="white"/>
<path fill-rule="evenodd" clip-rule="evenodd" d="M9.00647 64.1873C8.85631 64.2828 8.85631 64.5309 8.85344 64.7249C8.85344 64.9256 9.00418 64.973 9.07927 65.0753C9.3028 65.1256 9.60314 65.1256 9.75617 64.9287C9.86737 64.8332 9.79457 64.6835 9.75617 64.5369C9.64441 64.1903 9.2707 64.0407 9.00647 64.1873ZM10.2101 64.1941C10.2846 64.3941 10.4721 64.5911 10.3941 64.8874C10.2806 65.2783 9.94015 65.5234 9.63924 65.5716C9.18815 65.7144 8.81215 65.4663 8.55307 65.0212C8.40233 64.6738 8.48028 64.1814 8.59434 63.8378C8.82247 63.4942 9.19789 63.5483 9.53492 63.5987C9.79743 63.6498 10.0227 63.9453 10.2101 64.1941Z" fill="white"/>
<path fill-rule="evenodd" clip-rule="evenodd" d="M75.8948 65.0898C75.7807 65.2364 75.7807 65.4334 75.8174 65.6815C75.8535 65.8244 75.9286 66.0281 76.0793 66.0763C76.1905 66.0763 76.3046 66.0793 76.382 65.9296C76.4553 65.783 76.5327 65.5349 76.4576 65.3379C76.3848 64.9943 76.0816 64.8928 75.8948 65.0898ZM76.7947 65.4393C76.8308 65.7355 76.8285 66.031 76.7167 66.2761C76.5276 66.4738 76.3384 66.6197 76.1155 66.6167C75.8512 66.5182 75.5503 66.2701 75.5165 65.8753C75.4053 65.5799 75.5165 65.2836 75.5939 65.0355C75.7102 64.7904 75.9338 64.6949 76.1229 64.6476C76.535 64.5521 76.6491 65.0957 76.7947 65.4393Z" fill="white"/>
<path fill-rule="evenodd" clip-rule="evenodd" d="M52.2185 65.5166C52.1824 65.7647 51.9176 65.8602 51.8402 66.1083C51.4596 67.2888 51.7548 68.6692 52.3905 69.5128L52.7281 70.009C52.5773 70.1045 52.3515 70.0534 52.2374 70.0534C51.7502 70.0504 51.6046 69.309 51.3788 68.8639C51.1192 67.8775 51.2 66.6429 51.6534 65.8121C51.8058 65.6632 51.9566 65.4151 52.1824 65.4693L52.2185 65.5166Z" fill="white"/>
<path fill-rule="evenodd" clip-rule="evenodd" d="M58.6247 69.9518C58.5497 70.0503 58.4379 70.1458 58.3989 70.2924C58.4746 70.3428 58.5886 70.3428 58.6608 70.2954C58.6608 70.1969 58.7411 69.9992 58.6247 69.9518ZM43.9705 69.5539L43.8955 69.7035C43.8204 69.8975 43.6335 69.996 43.5922 70.2411C43.7814 70.2922 44.0823 70.3907 44.1958 70.1456C44.1574 69.9516 44.1207 69.7035 43.9705 69.5539ZM14.7372 69.2547C14.6982 69.2073 14.6231 69.1051 14.5864 69.2036C14.548 69.5479 14.3566 69.8404 14.1697 70.0885C14.0941 70.1359 14.1308 70.2351 14.2059 70.2351C14.3566 70.2382 14.5068 70.2855 14.6214 70.0915C14.6959 69.8434 14.771 69.5509 14.7372 69.2547ZM12.671 69.1406C12.5569 69.2391 12.4062 69.3858 12.4062 69.5354C12.4428 69.6812 12.5156 69.879 12.6297 69.9294C12.7799 69.9294 13.0051 70.082 13.1169 69.885C13.192 69.7354 13.1948 69.5384 13.1559 69.4399C13.1581 69.0925 12.8572 69.0452 12.671 69.1406ZM84.0723 69.0382C83.9967 69.0864 83.8442 69.1375 83.9193 69.2833L84.4047 70.2254C84.4798 70.2765 84.5182 70.2254 84.5549 70.1773C84.6684 69.8818 84.7853 69.5382 84.6713 69.1916C84.4844 69.0894 84.2615 69.042 84.0723 69.0382ZM85.9878 69.0037C85.9104 69.2992 86.1362 69.4488 86.1362 69.6969C86.2113 69.8947 86.1334 70.2856 86.3982 70.3368C86.6601 70.0947 86.6601 69.6014 86.6624 69.1563C86.5919 68.7616 86.1746 68.9564 85.9878 69.0037ZM59.2695 68.724C59.1583 68.7714 59.0053 68.8195 59.0443 69.0165C59.0781 69.4616 59.1532 69.8563 59.1509 70.2984C59.2627 70.3969 59.3767 70.2984 59.4908 70.1999C59.7527 69.8593 59.794 69.2676 59.6845 68.8225C59.5705 68.6248 59.3836 68.8699 59.2695 68.724ZM57.73 68.6599C57.691 68.6599 57.6544 68.7111 57.6544 68.7614L57.7271 69.4486L57.6498 70.2381L57.6859 70.2885C57.9094 70.19 58.0619 69.8975 58.1759 69.6494C58.1759 69.3569 58.2539 69.0607 58.1782 68.8126C58.067 68.6629 57.8802 68.6629 57.73 68.6599ZM43.1119 68.5615C43.073 68.7074 43.148 68.7585 43.148 68.857C43.2598 69.1051 43.1068 69.548 43.2959 69.6969C43.5579 69.4999 43.6719 69.1089 43.6748 68.7142C43.563 68.3676 43.2988 68.4631 43.1119 68.5615ZM13.8763 68.1638C13.7256 68.3104 13.5003 68.3608 13.4975 68.6029C13.6482 68.9022 13.7594 69.1503 13.9079 69.4458L13.9829 69.4969C14.1331 69.2518 14.0993 68.857 14.0626 68.5104C14.0265 68.4119 14.0265 68.1127 13.8763 68.1638ZM15.0404 68.1699C14.9264 68.418 15.1155 68.6157 15.1516 68.8127C15.2244 69.0608 15.1493 69.4044 15.2611 69.6525C15.2972 69.6525 15.3362 69.6051 15.3723 69.554C15.5643 69.2104 15.6784 68.7683 15.5666 68.3225C15.4915 68.027 15.1906 68.1225 15.0404 68.1699ZM88.0959 68.3293C87.9429 68.3766 87.9068 68.5744 87.8317 68.724C87.6787 69.1631 88.2048 69.2676 88.2776 69.7097C88.3138 69.8593 88.2776 70.0533 88.4255 70.1555C88.6898 69.9615 88.5786 69.4172 88.5809 69.0736C88.433 68.8225 88.3189 68.4751 88.0959 68.3293ZM44.2445 67.3871C44.1304 67.3871 44.0164 67.5811 43.9803 67.7277C43.9413 67.9247 43.939 68.2209 44.0502 68.3705C44.3878 68.5705 44.5013 69.0164 44.7248 69.3119C44.7999 69.2645 44.7999 69.0675 44.8389 68.9653C44.8412 68.3262 44.6182 67.7818 44.2445 67.3871ZM50.4995 62.7453C50.3883 62.7964 50.2742 62.8919 50.2353 63.0415C50.0851 63.334 50.347 63.5821 50.4611 63.8309C50.5333 63.8813 50.6841 63.8813 50.7592 63.7355C50.9093 63.5377 50.9122 63.1941 50.8394 62.946C50.7643 62.7964 50.6502 62.7453 50.4995 62.7453ZM54.1156 60.6519C53.9654 60.7001 53.8153 60.894 53.7763 61.091C53.6232 61.4376 53.8491 61.8324 53.997 62.1286C54.111 62.2271 54.2956 62.2812 54.487 62.1827C54.6762 62.0835 54.7123 61.791 54.7536 61.5429C54.7536 61.2467 54.7152 60.9986 54.5644 60.8016C54.4165 60.6519 54.2664 60.6519 54.1156 60.6519ZM54.9088 59.6685C54.8315 59.8693 54.7948 60.0662 54.8315 60.261C55.0206 60.461 55.0934 60.8557 55.3554 60.8557C55.5055 60.8587 55.6947 60.7602 55.7726 60.5662C55.8454 60.267 55.697 60.0189 55.6632 59.7264C55.474 59.4783 55.098 59.4745 54.9088 59.6685ZM31.0576 56.9934C30.8318 56.8438 30.6427 57.1393 30.4925 57.334C30.2649 57.6776 30.4512 58.1227 30.5991 58.4693C30.7498 58.7144 30.8977 59.2106 31.1981 59.1152C31.3872 58.9693 31.574 58.8227 31.652 58.5746C31.8045 58.1325 31.4674 57.7851 31.3557 57.3912L31.0576 56.9934ZM35.7507 70.4165C36.0637 70.4165 36.1026 70.3143 35.9639 70.1398C35.3673 69.3474 34.7683 68.5549 34.3195 67.6647C33.8736 66.5256 33.2769 65.488 32.7192 64.349C31.9718 63.1114 31.1889 61.8738 30.4414 60.5889C30.0293 59.9461 29.5828 59.3506 29.3989 58.6093C28.9524 57.1236 29.2217 55.3071 28.9644 53.7259C28.8939 52.4914 28.448 51.4545 27.7372 50.6109C27.2884 50.1658 26.8013 49.717 26.2384 49.6155C25.033 50.544 23.8638 51.3748 22.5082 51.8583C21.7952 52.1478 20.8546 51.8966 20.325 52.8289C19.7966 53.6146 19.1924 54.3492 18.5132 54.8875C17.458 55.7176 16.2555 56.1025 15.0502 56.392C14.7882 56.4364 14.5234 56.5319 14.2982 56.7296C13.6551 57.7604 13.0853 58.8386 12.707 60.022L12.4377 61.5972C12.4354 61.8423 12.3213 62.1889 12.472 62.3859C12.9203 62.6377 13.408 62.8377 13.784 63.2325C14.383 63.7287 14.7538 64.5715 15.0135 65.361L15.2003 65.4625C15.9523 65.7617 16.4011 66.7038 16.6579 67.591C16.8447 68.4308 16.6143 69.2677 16.3862 70.006C16.3862 70.1045 16.3409 70.3654 16.4521 70.4165H35.7507ZM66.672 49.7454C64.5209 52.7393 62.367 55.7302 60.0244 58.476C58.8162 59.7993 57.6091 61.1707 56.4009 62.4428C56.3642 62.491 56.3252 62.5895 56.4009 62.688C56.774 62.7902 57.1523 62.9398 57.4509 63.2864C58.1616 63.8842 58.5714 64.8736 58.7921 65.8601L59.3934 66.1112C59.8066 66.3119 60.0313 66.9036 60.1385 67.448C60.5506 68.0397 60.7758 68.7299 60.6572 69.5186C60.6159 69.8179 60.4921 70.1682 60.4898 70.4164H78.348L78.2775 70.2825C77.9428 69.6908 77.4579 69.3412 77.0068 68.9435L76.4829 68.151L76.26 68.148C75.8427 68.342 75.2799 68.3382 74.9451 67.8901C74.3823 67.2503 74.3124 66.2608 74.0888 65.3736C73.832 64.6323 73.7593 63.8428 73.6498 63.003C73.5363 62.3601 73.616 61.6226 73.4681 61.0308C73.3202 60.585 73.2451 60.0414 73.0222 59.6467C71.979 57.5693 70.8974 55.5423 69.7402 53.5603C68.8042 52.2243 67.8728 50.8875 66.7861 49.7935L66.672 49.7454ZM19.0446 47.6426C18.5184 47.4426 17.8782 47.3885 17.3904 47.6809C16.4493 48.2667 15.9546 49.4944 15.6125 50.6749C15.307 51.9538 15.0376 53.2357 14.8828 54.6139C14.8799 54.7124 14.9579 54.8109 15.033 54.862C15.6319 55.0147 16.2338 54.7696 16.7622 54.5275C17.3641 54.235 17.8925 53.7959 18.4577 53.3568C19.4011 52.6252 20.1193 51.3937 20.1989 50.0162C20.1651 49.2779 20.0173 48.5366 19.5295 48.0403L19.0446 47.6426ZM45.6 70.4164H49.3256L49.3451 70.2315C49.3451 70.0345 49.27 69.8375 49.231 69.5894C49.0471 68.9465 49.2408 68.2593 49.391 67.6676C49.2047 67.0759 48.9811 66.43 49.0224 65.6947C49.0247 65.3481 49.1777 65.0519 49.066 64.7053C48.9909 64.4098 48.7679 64.2121 48.7679 63.8685C48.3604 62.3858 48.5541 60.5151 49.1995 59.2362C50.2983 56.9776 51.6223 54.8168 52.646 52.5071C53.4026 50.8876 53.8611 49.0681 54.8458 47.5952C54.9599 47.3974 55.1077 47.2516 55.1077 47.0538C54.5839 47.0989 54.17 47.3914 53.7155 47.4869C52.8156 47.926 51.8751 48.1643 50.9339 48.3042C49.92 48.4951 48.8671 48.4891 47.8147 48.432C47.3637 48.4282 46.9877 48.3267 46.5756 48.2756L44.8457 48.0658C43.7206 47.9102 42.6316 47.6079 41.5036 47.5508C40.4902 47.4455 39.5904 46.9937 38.6515 46.5929C38.5764 46.6403 38.5764 46.7899 38.5764 46.8922C38.5351 47.7764 38.4188 48.6132 38.0766 49.3004C37.958 51.3206 37.6473 53.2424 37.116 54.9634C37.4123 56.0483 37.4438 57.2318 37.5894 58.3708L38.1081 60.1971C38.4818 61.1354 38.8527 62.1219 39.4883 62.9173C40.3905 62.9234 41.4067 62.8316 42.1564 63.4294C42.6413 63.776 42.9784 64.4699 43.3131 65.0617C43.6146 65.2624 43.9143 65.3639 44.174 65.6601C45.0355 66.5541 45.8964 67.7917 45.6631 69.3698C45.6608 69.7097 45.4739 69.9578 45.5467 70.254L45.6 70.4164ZM57.3294 46.6725L56.8009 47.0161C55.9738 47.6492 55.5927 48.7815 55.098 49.7138C54.3053 51.2348 53.6599 52.8574 53.0146 54.4829C52.2557 56.252 51.1959 57.8204 50.3636 59.491C50.022 60.4263 49.6048 61.3105 49.5635 62.3925C49.5612 62.6917 49.5973 62.9872 49.7114 63.1842C49.8593 63.1368 49.7475 62.8887 49.8254 62.7391C49.9366 62.5451 50.0897 62.3481 50.2765 62.303C50.5018 62.1571 50.7299 62.2526 50.9529 62.4052C51.2515 62.6534 51.2515 63.0954 51.2853 63.5406C51.2853 63.8368 51.1351 64.1804 50.907 64.327C50.6428 64.3744 50.308 64.2729 50.2668 64.718C49.8862 65.5518 50.0702 66.6871 50.4445 67.4284C50.558 67.7247 50.3298 67.9216 50.2909 68.1667C50.1745 68.9562 50.2353 69.9103 50.844 70.4163H54.2761L54.2641 70.2637C54.1569 69.478 54.3099 68.7359 54.6131 68.148C54.3902 67.8487 54.3145 67.454 54.2394 67.1104C54.1666 66.6172 54.3197 66.2736 54.5088 65.93C54.6206 65.7803 54.7346 65.6345 54.8848 65.6818C54.8848 65.8826 54.7346 65.93 54.6962 66.1277C54.6177 66.5187 54.7295 66.9645 54.8413 67.3111C54.914 67.6096 55.1015 67.8547 55.176 68.151C55.176 68.2495 55.0252 68.348 54.9868 68.4464C54.7977 69.0833 54.9381 69.9645 55.239 70.4163H56.8009C57.0141 70.3847 57.0869 69.99 57.1236 69.7419C57.2371 69.299 57.0141 68.854 57.1282 68.4119C57.2423 68.3134 57.3924 68.1667 57.3947 67.9698C57.4314 67.6735 57.1328 67.5239 57.0216 67.3269C56.8714 67.2247 56.6846 67.2247 56.5705 67.0277C56.461 66.5826 56.4249 66.0894 56.1991 65.7428C56.0489 65.5931 55.8644 65.4946 55.6752 65.4946V65.4435C55.8644 65.1984 56.1653 65.2495 56.4272 65.351C56.8009 65.6976 56.9878 66.2901 57.1357 66.7826C57.5501 66.9833 57.9238 67.4796 58.0693 68.0239L58.7073 68.3735C58.8597 68.1765 59.0128 67.9314 59.1245 67.7374C58.8987 67.3397 58.6007 67.1901 58.2608 67.0886C57.9261 66.9863 57.9261 66.4457 57.8899 66.051C57.7444 65.1127 57.0313 64.4668 56.3934 64.215C55.9423 64.1135 55.4545 64.012 55.0035 64.2059C54.8556 64.2059 54.7392 64.4029 54.5914 64.3999C54.4406 63.7127 54.6687 63.0225 54.9742 62.4812C55.2001 62.0872 55.4643 61.8421 55.6534 61.4504C55.5422 61.403 55.3531 61.3993 55.2413 61.4947C55.0883 61.8421 55.0499 62.2331 54.7851 62.5263C54.5209 62.8218 54.0698 62.7706 53.8101 62.5706C53.5069 62.3225 53.2839 61.9278 53.175 61.5331C53.0994 60.9895 53.3665 60.5978 53.5917 60.2038C53.8176 60.0091 54.1208 59.9617 54.3827 59.8662C54.4217 59.6181 54.5329 59.4203 54.6859 59.2264C54.9502 58.9309 55.3623 58.8865 55.7022 59.0354C55.9251 59.185 56.0392 59.5286 56.112 59.8249C56.1848 60.3211 56.0707 60.8617 55.8426 61.2534H55.8816L57.201 59.9835L59.9172 56.8467C61.392 55.0302 62.8255 53.1686 64.2636 51.2566C64.8287 50.4709 65.4718 49.6883 65.9275 48.7529C65.8524 48.6544 65.7407 48.4537 65.5882 48.4537C64.6448 49.7296 63.5506 50.8559 62.5682 52.0807C61.4745 53.2581 60.303 54.5814 59.1704 55.8062C58.4528 56.5888 57.8487 57.5723 57.0577 58.2565C56.7912 58.4505 56.4903 58.794 56.1532 58.6444C56.1532 58.3993 56.1922 58.1001 56.1555 57.8046C56.0879 56.6685 56.2427 55.5866 56.3957 54.5528C56.774 53.4235 57.1185 52.2401 57.499 51.0627C57.7684 49.6853 57.9988 48.3041 58.5302 47.0763C58.5691 46.9267 58.6803 46.7838 58.6076 46.6342C58.1542 46.6312 57.7054 46.5771 57.3294 46.6725ZM63.4176 46.5673C62.6656 46.6598 61.9113 46.7553 61.1593 46.7996C60.6716 46.7966 60.1454 46.6944 59.6966 46.7899C58.5663 47.668 58.5955 49.4402 58.2877 50.9199C57.8705 51.8522 57.679 52.889 57.3368 53.8213C57.0703 54.5596 56.8835 55.3453 56.8393 56.1852C56.7986 56.5799 56.762 57.019 56.8714 57.3175C58.1181 56.1438 59.2891 54.5754 60.4583 53.2514C60.8756 52.6634 61.4791 52.1732 61.9331 51.5371C62.5756 50.7545 63.2886 50.0161 63.9317 49.2334C64.2734 48.7432 64.686 48.3996 64.9526 47.859C64.6155 47.3628 64.2808 47.0192 63.9438 46.523C63.7569 46.4245 63.5678 46.5162 63.4176 46.5673ZM34.1814 46.2682C33.5802 46.4118 33.1629 47.2479 33.0855 47.9862C32.8522 49.711 33.5607 51.1455 34.5333 52.1861C35.0933 52.8793 35.7702 53.1816 36.2551 54.0222H36.3669C36.7475 52.9402 36.8277 51.7087 36.9831 50.4779C36.9854 49.7869 37.1768 48.9501 36.9172 48.4065C36.2821 47.2704 35.3845 45.9817 34.1814 46.2682ZM71.317 44.6998C70.6768 45.1389 70.2572 46.0742 70.2543 47.0576C70.2108 48.7817 70.7685 50.2162 71.4769 51.5049C72.4834 53.4334 73.679 55.2657 74.7245 57.1461H74.7996C74.7245 56.5544 74.5789 56.0612 74.4706 55.5168C74.0602 53.8883 73.1259 52.4981 72.5321 51.0184C72.2363 50.226 71.7119 49.4846 71.8672 48.4478C71.979 48.1042 72.2799 47.9102 72.6192 47.9133C73.4073 48.117 73.8148 49.2523 74.2636 50.0929C75.0082 51.9222 75.4495 53.9484 76.4199 55.6792C76.8687 56.6183 77.2401 57.604 77.8752 58.3995C78.1004 58.7461 78.324 59.1408 78.661 59.3889C78.5131 58.5017 78.1033 57.7604 77.921 56.8724C77.4751 55.1928 77.0309 53.465 76.5099 51.7853L75.8817 49.8094C75.2506 47.6839 74.055 45.6035 72.4811 44.5118C72.1074 44.4103 71.654 44.4547 71.317 44.6998ZM49.7114 43.9583C49.3377 43.8568 48.9571 44.1011 48.5817 44.1966L48.506 44.2959C48.843 44.5943 49.3331 44.547 49.7452 44.6485C49.9343 44.6522 50.0484 44.356 50.1235 44.2064C50.0123 44.0094 49.8254 44.0568 49.7114 43.9583ZM50.9873 44.4614C50.9483 44.5117 50.9483 44.611 51.0211 44.6583C51.5862 44.811 52.2242 44.7666 52.8277 44.6711C53.0925 44.426 53.4318 44.2794 53.6938 43.9358V43.8373C52.7188 43.5862 51.7416 43.8245 50.9873 44.4614ZM62.1898 43.5005C61.7754 43.6464 61.4745 43.99 61.1323 44.2351C61.0962 44.3336 60.9845 44.4291 61.0572 44.5314C61.431 44.681 61.8482 44.5374 62.2214 44.684C62.5612 44.7381 62.8593 45.0847 63.272 44.9381L63.2743 44.8396C63.01 44.5915 62.7865 44.2479 62.5635 43.9968C62.4134 43.8472 62.3377 43.6021 62.1898 43.5005ZM59.5607 43.0419C59.1463 43.2366 58.7319 43.6757 58.3531 43.9682C58.2786 44.0186 58.1272 44.1179 58.1272 44.2133C58.5422 44.3622 59.0271 44.4164 59.4788 44.369L60.3465 44.181L60.8005 43.6915C60.8366 43.6404 60.9117 43.5449 60.8366 43.4938C60.4216 43.2427 60.0118 43.1442 59.5607 43.0419ZM56.6674 42.7277C56.1022 43.0201 55.6122 43.4562 55.086 43.8472C55.0837 43.8983 55.0837 43.9457 55.1227 43.9968C55.799 44.051 56.437 44.4006 57.1139 44.2066C57.565 43.9141 57.9794 43.3735 58.3577 42.9344C57.7931 42.9307 57.1935 42.975 56.6674 42.7277ZM50.8829 42.393C50.6938 42.4885 50.507 42.584 50.3178 42.4855C49.9028 42.4825 49.4907 42.6254 49.1147 42.7239C49.003 42.772 48.8138 42.8194 48.8138 42.966C49.4128 43.4141 50.0897 43.5163 50.7666 43.475C51.1059 43.4269 51.3678 43.1825 51.7049 43.2329C51.8556 43.1374 51.9697 42.9404 52.047 42.7434C52.047 42.6442 51.933 42.6412 51.8969 42.5938C51.557 42.5938 51.2177 42.4915 50.8829 42.393ZM46.2214 42.3585C45.9595 42.3074 45.6952 42.454 45.4717 42.5525L45.5084 42.5998L46.5194 43.2457C47.0072 43.4975 47.5334 43.5509 48.0596 43.6021V43.5547C47.9094 43.157 47.5334 43.3028 47.3104 43.1058C46.9344 42.9051 46.5974 42.5081 46.2214 42.3585ZM54.5673 41.7729L54.4166 41.8713C53.8514 42.0653 53.3252 42.3585 52.8352 42.7495C52.7991 42.7976 52.6827 42.7976 52.7211 42.8961C53.2089 43.1954 53.8852 43.1984 54.451 43.0548C54.902 42.9119 55.3164 42.6157 55.7314 42.3262C55.7698 42.2758 55.8816 42.2277 55.8065 42.1292L54.5673 41.7729ZM48.2928 41.5343C47.8801 41.5817 47.5408 41.6772 47.1281 41.623L46.5246 41.7666C46.5246 41.7666 46.4879 41.817 46.5246 41.8681C46.9006 42.0178 47.2376 42.2659 47.6136 42.4659C47.8004 42.5651 48.0257 42.4215 48.251 42.52L49.1921 42.0336L49.3451 41.8869L49.3062 41.8366C48.9691 41.7373 48.6682 41.5373 48.2928 41.5343ZM61.0727 41.4232C60.6549 41.6202 60.2789 41.9608 59.978 42.3517V42.4029C60.3517 42.6029 60.7638 42.7051 61.1788 42.8036C61.3656 42.8036 61.6247 43.2525 61.7777 42.8066L61.0727 41.4232ZM49.0855 40.8503L48.8963 40.9458C48.8574 40.9969 48.8574 41.0443 48.8963 41.0954C49.1973 41.2442 49.5733 41.1999 49.8713 41.3976C49.9103 41.3976 49.9854 41.2991 49.9464 41.251L49.0855 40.8503ZM58.4041 40.8659C57.8779 41.1554 57.3879 41.5975 56.9345 41.9381C56.9345 42.0877 57.0457 42.0366 57.1208 42.0877C57.6859 42.0907 58.2849 42.2434 58.8116 42.002C59.1532 41.808 59.641 41.8584 59.9803 41.5148C59.9803 41.4674 60.056 41.3689 59.9803 41.2697C59.4541 41.1171 58.8552 41.1614 58.4041 40.8659ZM52.2797 40.6238C51.6395 40.7193 51.1495 41.111 50.621 41.5501C50.5843 41.6005 50.5843 41.6486 50.6594 41.696C51.22 41.8967 51.8241 41.8554 52.4253 42.005C52.9521 41.9095 53.4026 41.7185 53.8565 41.3749V41.3276C53.7814 41.1779 53.7086 40.9802 53.5556 40.9802C53.1435 40.8276 52.6947 40.7261 52.2797 40.6238ZM56.0414 40.0104C55.7382 40.2044 55.4379 40.2517 55.1737 40.3984C54.9478 40.545 54.722 40.6908 54.5695 40.936C54.8315 41.2352 55.2849 40.9901 55.5835 41.1397C55.8867 41.2412 56.1847 41.2924 56.449 41.3939C56.8978 41.1014 57.354 40.8059 57.8022 40.5164C57.8435 40.4171 57.9163 40.2683 57.8435 40.2202L57.1282 40.2171C56.7522 40.2615 56.379 40.16 56.0414 40.0104ZM43.5263 39.9238C43.3011 39.8734 42.9641 39.7712 42.7749 39.9652L43.0369 40.414C43.7109 41.108 44.4577 41.6554 45.3215 41.8584C45.3966 41.8584 45.4356 41.7125 45.4356 41.6133C45.5106 41.4674 45.7359 41.5148 45.7388 41.3208C45.212 41.0697 44.6881 40.7193 44.201 40.2231L43.5263 39.9238ZM45.1805 39.7366C45.1054 39.8351 44.9163 39.8351 44.9163 40.0321C45.3651 40.4809 45.8912 40.8757 46.4518 41.0757C46.7521 41.0313 47.092 40.9328 47.3929 40.8373V40.7862C46.9075 40.4396 46.4203 40.1403 46.0076 39.6952C45.7456 39.5967 45.4453 39.6885 45.1805 39.7366ZM49.0906 39.5683C48.9376 39.7142 48.7147 39.7112 48.6734 39.9081C49.1996 40.2104 49.7257 40.5096 50.4026 40.4141C50.6279 40.3157 50.7763 40.5668 51.0016 40.4172C51.1156 40.3217 51.2658 40.3217 51.3776 40.1758C51.3438 39.9751 51.1907 40.0262 51.0795 39.9277C50.9678 39.8254 51.1179 39.6315 51.0451 39.4818C50.4445 39.2337 49.6564 39.3232 49.0906 39.5683ZM60.2136 39.1991L59.7648 39.4434C59.4616 39.6382 59.1246 39.8825 58.8964 40.1787C58.9692 40.3254 59.1584 40.3254 59.2696 40.3757C59.7212 40.5284 60.2451 40.678 60.7346 40.487C60.5506 40.093 60.4033 39.6442 60.252 39.2021L60.2136 39.1991ZM47.5889 39.0651C47.2129 39.1095 46.8736 39.1576 46.5366 39.3035V39.3516C47.0215 39.7997 47.5866 40.0989 48.0721 40.4455C48.1833 40.4493 48.3725 40.5478 48.4475 40.3538C48.2246 40.1531 47.9603 40.0516 47.7345 39.9019V39.8065C47.9237 39.4599 48.2269 39.514 48.4527 39.2689C48.4888 39.2178 48.6395 39.1704 48.5639 39.0711C48.2658 38.9696 47.8898 38.9666 47.5889 39.0651ZM54.0165 39.0585C53.7883 39.0585 53.6405 38.8586 53.4513 38.8586C53.1481 39.151 52.8111 39.2495 52.4712 39.345C52.3961 39.3931 52.2482 39.4405 52.2459 39.5901C52.8449 40.0863 53.6359 40.1405 54.3873 40.1472L54.7633 39.9533C54.9524 39.7555 55.4035 39.7585 55.2929 39.2661C55.2534 39.1668 55.1416 39.1668 55.0665 39.1668C54.7272 39.3104 54.3145 39.2082 54.0165 39.0585ZM83.8923 70.4164C83.8539 70.1683 83.6184 69.9743 83.5433 69.7735C83.4682 69.5284 83.204 69.5766 83.2813 69.3314C83.4705 68.7901 83.8465 68.6442 84.2225 68.5006C84.3388 68.4503 84.4867 68.5006 84.6375 68.4021C84.6398 68.1067 84.5647 67.8104 84.4162 67.5623C83.3662 66.4714 82.0175 66.1654 80.8924 65.2714C80.4797 64.8736 80.1427 64.3774 79.8836 63.8368C79.8108 63.4391 79.5099 63.191 79.4738 62.7963C79.3981 62.5993 79.323 62.3512 79.4033 62.1572C79.4394 62.1091 79.4761 62.2045 79.5512 62.2075C80 62.9015 80.3731 63.7413 80.9698 64.2376C81.6077 64.6864 82.2095 65.1827 82.9202 65.3827C83.7084 65.7842 84.5331 66.2323 85.1321 67.1744C85.3161 67.5691 85.3912 68.0142 85.3889 68.5074L85.2725 69.0961L85.1608 69.2931L85.0834 69.7382C85.0834 69.9833 84.8891 70.1683 84.9258 70.4164H85.7941C85.9105 69.8277 85.2702 69.4939 85.5007 68.9021C85.5757 68.6059 85.8016 68.4593 86.0291 68.3638C86.1409 68.1668 85.9151 68.1157 85.8789 67.9661C85.3574 67.4698 85.3608 66.633 85.0226 66.0383C84.9475 65.8413 84.8358 65.6947 84.9137 65.4977C85.2874 65.6473 85.4737 66.1909 85.6973 66.5856C85.8451 67.0789 86.1822 67.3811 86.5192 67.6262C86.929 68.1225 87.0431 68.7653 87.0356 69.5029C87.1113 69.8465 86.7983 70.1683 86.9852 70.4164C87.3606 70.3848 87.7515 70.572 87.8627 70.1014C87.8266 69.6555 87.5285 69.2615 87.2299 69.0608C87.1909 68.666 87.4191 68.4217 87.5692 68.0781V67.8804C87.3852 67.3871 86.9725 67.1871 86.6355 66.8398C86.1844 66.4428 85.8887 65.7999 85.5906 65.2052C84.8043 63.8684 83.5605 65.0932 82.5465 64.7406C81.4988 63.7955 80.9044 62.4113 80.3077 61.0782C79.7862 59.8918 79.4543 58.6061 79.158 57.2731C78.7871 55.8926 78.6049 54.41 78.312 52.9784C78.0179 51.1552 77.5359 49.377 77.0527 47.6462C76.7936 46.7583 76.4222 45.8703 76.2016 44.929C76.5776 44.4861 76.9558 43.9967 77.298 43.4591C78.0156 42.2305 78.8089 41.0028 79.1895 39.5772C79.1534 39.3802 79.0026 39.4757 78.8914 39.4276C78.7413 39.3261 78.7797 38.9825 78.6295 38.9314C78.4404 39.5231 78.363 40.1629 78.1715 40.7065C77.8288 41.9824 77.0745 43.1117 76.2038 43.9425C75.6754 44.4327 74.9985 44.4771 74.3605 44.62C74.2104 44.6711 73.9845 44.617 73.9461 44.8139C74.8821 45.8072 75.402 47.0921 76.0004 48.2823C76.5953 49.9108 77.0774 51.6416 77.5187 53.322C77.8167 54.407 78.1131 55.4911 78.4449 56.5317L78.6318 57.1716C78.9253 58.5046 79.3741 59.7392 79.8205 60.9767C79.8205 61.0241 79.7816 61.1226 79.7426 61.1226C79.3695 60.9226 79.107 60.4768 78.7338 60.2768C77.7222 59.2362 76.7868 58.046 76.1167 56.6626C75.1464 54.731 74.6299 52.6093 73.8493 50.6304C73.5868 50.089 73.4389 49.4432 73.0268 49.0011C72.8766 48.8514 72.6531 48.6515 72.4645 48.7973C72.3527 49.0935 72.4227 49.389 72.4977 49.6341C73.1311 51.0213 73.8779 52.4055 74.5113 53.7927C74.8844 54.731 75.1441 55.816 75.3647 56.8535C75.6221 58.4821 75.7264 60.1587 75.7963 61.8865L75.7579 61.9339C75.4937 61.6354 75.496 61.1925 75.3865 60.7955L75.1246 59.955C74.9016 59.3632 74.6059 58.8227 74.38 58.2242C74.0453 57.5851 73.5965 56.9904 73.2985 56.2964C72.852 55.31 72.253 54.3686 71.7314 53.4265C71.1347 52.3386 70.502 51.2506 70.0555 50.0131C69.7935 49.3702 69.7207 48.68 69.5751 47.9891C69.464 47.3973 69.5029 46.8056 69.5826 46.2139C69.5826 45.9214 69.8084 45.6733 69.7718 45.3771C69.3207 45.4726 68.9447 45.7658 68.5303 46.0102C67.7032 46.5485 66.7231 46.4944 65.7481 46.5357L65.4839 46.532C65.5951 46.7771 65.7819 47.0282 65.9688 47.2259C66.8325 48.1199 67.7295 48.9123 68.5154 49.9559C70.2326 52.3829 71.8019 54.9062 73.1431 57.6264C73.628 58.8129 74.4116 59.8535 74.5961 61.2339C74.705 61.7782 74.6276 62.3699 74.5892 62.9105C74.5864 63.7511 74.846 64.4413 75.1807 65.1345L75.253 65.9714C75.3258 66.3187 75.5126 66.7127 75.7723 66.9608C75.9253 67.0631 76.1872 67.1104 76.3764 67.015C76.7524 66.9165 76.9048 66.3789 76.9799 65.9842C77.0579 65.6887 76.9851 65.3924 77.0602 65.097L77.208 65.4436C77.3559 65.8887 77.3536 66.3819 77.3513 66.8721C77.4264 67.3683 77.6133 67.7149 77.9142 68.0616C78.661 68.8066 79.4274 69.4743 80.024 70.4164H81.5739L81.5859 70.3051C81.5882 69.5157 80.9119 69.2645 80.5771 68.7683C80.5771 68.7202 80.502 68.6217 80.5771 68.6217C80.9531 68.9209 81.4042 69.0224 81.8163 69.3187C82.1534 69.4713 82.3574 70.0217 82.5443 70.4164H83.8923ZM57.812 38.1487C57.7008 38.0983 57.6641 38.2953 57.55 38.3938C57.0989 38.5878 56.6095 38.7314 56.1945 39.1224C56.1171 39.1735 56.081 39.272 56.1171 39.3705C56.4925 39.5201 56.9075 39.4727 57.2835 39.5261C57.7346 39.5299 58.1106 39.1863 58.5594 39.4344L59.1996 38.8998L59.2019 38.7502C58.7898 38.4036 58.3387 38.2028 57.812 38.1487ZM41.3196 37.494C41.2446 37.494 41.2056 37.6428 41.2807 37.7383C41.5787 38.2827 42.1026 38.4834 42.4402 38.9315C42.7021 39.0811 43.003 39.1293 43.2673 38.9857C42.8546 38.6864 42.6316 38.1932 42.4087 37.697C42.1077 37.4488 41.6956 37.3473 41.3196 37.494ZM43.1239 37.357C43.0488 37.4044 42.9348 37.357 42.8981 37.4555C42.9709 37.8502 43.3085 38.0983 43.5337 38.3968C43.8685 38.8427 44.2806 39.0427 44.6933 39.2434C44.9575 39.1923 45.2217 39.0494 45.4837 39.0494C45.5227 39.0494 45.6344 39.0494 45.5977 38.9509C45.1489 38.5051 44.6618 38.1555 44.288 37.6111C43.9493 37.4141 43.536 37.4104 43.1239 37.357ZM44.965 37.2706C44.8899 37.2706 44.8899 37.3698 44.926 37.4202L45.5255 38.063C45.7508 38.2127 45.9376 38.4608 46.1629 38.6615C46.614 38.4164 47.1407 38.569 47.5918 38.4224L47.6646 38.3269L47.6279 38.2728C46.767 37.8277 45.9422 37.2803 44.965 37.2706ZM55.45 37.0482C54.8849 37.4361 54.283 37.7293 53.7546 38.1714V38.2188C54.3174 38.521 54.9938 38.4737 55.6317 38.5782C56.049 38.2353 56.4978 37.8917 57.0262 37.7963C57.0262 37.7481 57.1741 37.7008 57.1019 37.6015L56.539 37.5C56.163 37.3504 55.7893 37.2489 55.45 37.0482ZM59.5876 36.6819C59.0586 36.8766 58.4573 36.8728 58.0424 37.363C58.2292 37.6081 58.5301 37.5638 58.7921 37.7608C59.1681 37.8623 59.5028 38.3555 59.9929 38.1645C59.9585 37.672 59.8083 37.2262 59.7355 36.6819H59.5876ZM79.5414 36.8156C79.0903 36.6186 79.1242 37.3599 78.9373 37.6524C79.0078 37.9486 78.9717 38.3426 79.1196 38.5403C79.3448 38.4922 79.4228 38.1013 79.6119 38.0028C79.8011 37.7095 79.8372 37.3156 79.9535 36.9682C79.9157 36.9178 79.8784 36.8697 79.8784 36.9178C79.7644 37.0667 79.6142 36.9682 79.5414 36.8156ZM42.2991 36.3676C42.1123 36.3165 41.8504 36.1669 41.6251 36.3135C41.6251 36.5579 41.773 36.7075 41.8481 36.8571C42.11 36.9556 42.3742 36.8601 42.6367 36.8097C42.6751 36.7616 42.7869 36.7646 42.7118 36.6157L42.2991 36.3676ZM43.2799 35.979C43.2042 35.979 43.1653 36.0782 43.1653 36.1767C43.3911 36.4722 43.539 36.9654 43.9511 36.918C44.0262 36.7714 44.2543 36.8255 44.2904 36.6759C43.9923 36.3293 43.6163 36.1286 43.2799 35.979ZM57.3758 35.2376C56.7356 35.4797 56.1314 35.8203 55.5686 36.2594C55.4935 36.3097 55.4912 36.4052 55.5273 36.4563C56.0902 36.8571 56.8055 36.8097 57.5185 36.8157C57.9335 36.4248 58.3869 36.1827 58.9136 35.9887V35.8902C58.462 35.4413 57.902 35.3872 57.3758 35.2376ZM78.8358 34.942C78.7189 35.0879 78.571 35.2345 78.5687 35.4315C78.6048 35.8774 78.6392 36.4179 78.751 36.8157L78.7894 36.7645L79.1315 35.7789L79.0198 35.1872C78.9842 35.0879 78.9447 34.942 78.8358 34.942ZM57.977 34.6495H58.0137C58.4281 34.9007 58.8408 35.1488 59.2162 35.4442C59.3647 35.5465 59.551 35.645 59.7401 35.6006C59.743 35.0089 59.8594 34.4646 59.8983 33.9714C59.1824 33.9172 58.5061 34.0608 57.977 34.6495ZM80.3031 33.9172C80.1524 34.1623 80.114 34.5059 79.8882 34.6999C79.66 34.5029 79.6262 34.0097 79.4033 33.7616C79.3276 33.8127 79.2869 33.9586 79.2502 34.0578C79.0611 34.4999 79.3958 34.8465 79.4348 35.2886C79.4319 35.4856 79.6217 35.5879 79.6188 35.7848C79.6555 35.8833 79.6944 36.03 79.8056 35.9826C79.9564 35.7848 80.0343 35.4924 80.2229 35.3458C80.5261 35.0503 80.4871 34.557 80.5284 34.1149C80.5674 33.9653 80.4195 33.5225 80.3031 33.9172ZM16.8132 32.3932L16.7381 32.2947C16.6241 32.3459 16.549 32.5429 16.4739 32.6383C15.9036 34.0639 15.4095 35.5398 15.2513 37.1661C14.982 38.8901 15.0135 40.863 14.9287 42.6351C14.849 44.3118 14.4289 45.7877 13.709 47.1147C12.6876 49.0748 10.9193 49.3101 9.45203 50.1402C9.1878 50.3342 8.88689 50.5793 8.69545 50.971C8.31716 51.5627 8.12802 52.3003 7.86092 52.9875L7.51702 54.6138C7.43677 55.8446 7.43162 57.222 7.42703 58.555C7.38347 59.6407 7.26712 60.6708 7.11179 61.661C6.99773 62.3001 6.99257 62.9903 6.91748 63.6301C6.83495 65.4496 6.48818 67.5691 7.12153 69.2037C7.30552 69.745 7.75431 70.1901 8.13776 70.4164H11.1377C11.3171 70.2442 11.4747 70.3179 11.5504 70.1202C11.5137 69.9706 11.4776 69.8721 11.402 69.7736C11.14 69.4232 11.0288 68.9811 10.956 68.536C10.8809 68.2398 10.6213 68.0901 10.4322 67.9886C9.75753 67.3969 8.74131 67.6834 8.18132 66.7924C7.73253 66.0511 7.89015 64.9662 7.92913 64.0782C7.93142 63.5857 7.78354 63.1429 7.85863 62.6978C8.16183 62.7993 8.12056 63.3436 8.23233 63.6399C8.41632 64.3775 8.11311 65.1669 8.33665 65.806C8.74646 66.7 9.49559 66.9007 10.2499 66.8082C10.7738 66.8112 11.2248 67.206 11.4484 67.8007C11.6352 68.0488 11.8972 68.1511 12.0084 68.4465C12.1201 68.5931 12.045 68.8894 12.1929 68.9398C12.421 68.7939 12.7214 68.6984 12.9862 68.5999L13.1753 68.3067L13.8517 67.6706C13.9657 67.5721 13.8545 67.4225 13.7789 67.2729C13.5198 66.8782 13.1799 66.5797 13.0682 66.0353C12.5855 65.0489 11.4581 65.2398 11.1985 64.0534C11.1985 64.0053 11.2375 63.9068 11.3125 63.9068C11.7636 64.3015 12.2485 64.6038 12.7747 64.7534C13.2258 65.0045 13.5611 65.5481 13.6723 66.1909C13.9342 66.3406 14.2328 66.5887 14.3056 66.9834C14.344 67.327 14.4919 67.6225 14.6037 67.9217C14.8295 67.8744 14.9436 67.6766 15.1327 67.6293C15.2829 67.5308 15.5448 67.6293 15.6199 67.4353C15.6589 67.139 15.3969 66.9894 15.2462 66.7894C14.8731 66.6398 14.422 66.3436 14.3125 65.8C14.0506 65.0586 13.4155 64.5113 12.8888 64.1647C12.4038 63.8654 11.8026 63.6143 11.5791 62.873C11.434 61.7369 11.7757 60.655 11.9705 59.6212C12.3505 58.1453 13.1071 56.9197 13.7135 55.5904C13.9778 55.0521 14.2059 54.5596 14.32 54.0183C14.4386 52.9334 14.6306 51.8995 14.822 50.9161C15.2439 49.0455 16.2653 46.7869 17.9578 46.5516C18.5207 46.5034 19.0469 46.7042 19.5346 46.9553C20.4729 47.6042 20.842 48.8868 20.912 50.1688C20.9486 50.465 20.7985 50.7605 20.9097 51.0056L21.5476 50.7635C22.7897 50.3785 24.0317 50.0447 25.1253 49.065C25.1637 49.0139 25.1637 48.9154 25.0886 48.8673C24.4146 48.565 23.7767 48.0688 23.1777 47.4711C22.2434 46.4305 21.2713 45.2914 20.4855 43.9554C19.2893 42.2216 18.511 40.0961 17.9172 37.9743C17.5457 36.7871 17.2884 35.5022 17.0293 34.2706L16.8132 32.3932ZM78.8066 32.0309C78.6535 32.6226 78.4667 33.2143 78.2001 33.7045L78.2729 34.1496C78.348 34.2962 78.3068 34.5917 78.4598 34.5917C78.6495 34.2007 78.763 33.7556 78.9155 33.3166C79.1046 32.9218 78.9184 32.476 78.8427 32.0309H78.8066ZM59.6432 31.8015C59.2649 31.9954 58.8528 32.0909 58.4768 32.336C58.3628 32.4345 58.1736 32.5338 58.1008 32.7278C58.3238 32.8293 58.5857 32.8774 58.8115 33.0774L59.7498 33.233C59.9006 33.1857 59.9757 33.3827 60.0874 33.2842C60.1648 32.8932 60.2789 32.4954 60.3562 32.1007C60.1333 32.0022 59.9052 31.8015 59.6432 31.8015ZM79.9025 30.5609C79.6772 30.8564 79.5242 31.2481 79.4491 31.6429C79.4107 31.8399 79.221 31.888 79.2944 32.085L79.7815 33.418L79.8543 33.5195C80.1575 33.0774 80.0097 32.3842 80.2349 31.894L80.126 31.0542C80.0893 30.9075 80.0555 30.6594 79.9025 30.5609ZM77.2762 29.7558C77.0871 29.9024 76.9002 29.9979 76.7111 30.0964V30.1918C76.934 30.5385 77.0842 30.8858 77.3461 31.1843C77.349 30.7903 77.3851 30.4467 77.4631 30.1031C77.3874 30.0009 77.4264 29.7558 77.2762 29.7558ZM74.3026 30.8662C73.5919 30.0745 72.692 29.5272 71.7509 29.7655C70.7736 29.9565 69.9804 30.8377 69.151 31.4737C68.0597 32.3046 66.8176 32.6895 65.5005 32.9278C64.9382 32.9722 64.3364 33.0203 63.7351 32.9121L62.4203 32.7083L62.3091 32.7594C62.1171 33.1504 61.9279 33.5421 61.8918 34.0353C61.6952 35.2661 61.729 36.6473 62.0254 37.7834C62.469 39.5615 63.0995 41.3908 64.2223 42.6284C64.7468 43.1246 65.2701 43.5735 65.9109 43.7742C66.5098 43.8757 67.1111 43.7329 67.6762 43.5419C68.7675 43.0547 69.8955 42.5239 71.0986 42.3329C71.7027 42.1389 72.4163 42.2434 73.0537 42.2976C73.4291 42.2976 73.8051 42.1517 74.1811 42.1066C74.5571 42.0111 74.9331 41.8652 75.2753 41.569C76.1408 40.8886 76.6721 39.7081 76.7523 38.4255C76.7569 37.4901 76.7231 36.5518 76.5386 35.712C76.3179 34.0857 75.5733 32.6512 74.7537 31.4136L74.3026 30.8662ZM78.4426 29.4188C78.2535 29.7113 77.8362 29.9534 77.8752 30.3985L77.6809 32.0751L77.7903 32.5172C77.8654 32.5684 77.9772 32.7654 78.0936 32.718C78.3188 32.0782 78.4718 31.3406 78.6243 30.6496L78.5515 29.9624C78.5515 29.7654 78.5928 29.5173 78.4426 29.4188ZM78.9739 28.3851C78.8576 29.0753 79.0026 29.7656 79.1143 30.3603C79.1533 30.4595 79.0759 30.7009 79.2261 30.6565C79.5293 30.2107 79.6067 29.6731 79.7574 29.1325L79.6869 28.5851C79.6141 28.0949 79.1969 28.337 78.9739 28.3851ZM18.6709 27.7708C18.2977 27.7227 18.0696 28.2129 17.9172 28.5565C17.8753 29.4918 17.7985 30.4271 17.3807 31.1654C17.4145 32.3489 17.7108 33.3353 17.8197 34.4714C17.9292 35.3112 18.1499 36.0999 18.3361 36.8924C18.5935 37.9262 18.9282 38.8645 19.2263 39.8577C19.9685 41.881 21.1642 43.7133 22.3965 45.3456C23.1095 46.144 23.8569 46.8884 24.6811 47.4839C25.1322 47.735 25.542 48.0305 25.9931 48.1838C26.5199 48.1357 27.0071 48.1387 27.4971 48.0432C27.8731 47.8019 27.8393 47.2613 27.8777 46.7681C27.8416 46.3222 27.6547 45.8771 27.4318 45.4824C26.3863 43.8982 25.1517 42.7524 24.1429 41.1208C23.2476 39.3389 22.467 37.5096 22.1368 35.4383L22.064 34.8466C21.8801 33.7586 21.7345 32.6767 21.5138 31.5887C21.0673 30.4015 20.7715 29.0211 19.835 28.1745C19.498 27.879 19.0859 27.7738 18.6709 27.7708ZM75.7046 28.0663C75.5928 28.1656 75.4019 28.213 75.4019 28.3596C75.6266 28.6077 75.8135 28.8588 76.0777 29.0558C76.1528 28.8618 76.0026 28.7603 75.9275 28.6618C75.8553 28.4611 75.9298 28.0701 75.7046 28.0663ZM77.247 27.4369L76.6434 28.073C76.6068 28.5151 76.6406 29.0083 76.5632 29.406L76.6016 29.5519C76.8635 29.5556 77.0166 29.1136 77.2808 28.9639C77.2808 28.4707 77.3198 27.9294 77.286 27.4369H77.247ZM78.1153 27.0993C78.074 27.0993 78.0373 27.0993 77.9989 27.0963C77.8511 27.1948 77.7341 27.3414 77.7341 27.5384C77.7319 28.1301 77.8459 28.5759 77.8436 29.1669C77.8436 29.215 77.9187 29.3135 77.9915 29.2661C78.1445 29.021 78.3675 28.824 78.4087 28.5308C78.3337 28.3782 78.1829 28.3308 78.1078 28.1812C78.0717 28.0827 78.0717 28.0346 78.1078 27.9361C78.113 27.6399 78.2242 27.3955 78.1153 27.0993ZM70.2595 26.7497C69.9196 26.8452 69.7695 27.2362 69.4686 27.3347C69.4686 27.4813 69.6164 27.6309 69.7305 27.6813L70.5965 27.2933C70.5965 27.1948 70.5988 27.0482 70.5215 26.9979C70.3346 27.1437 70.3346 26.8482 70.2595 26.7497ZM73.381 26.4723C73.1918 26.67 72.966 26.8159 72.852 27.061L73.303 27.1662C73.3781 27.0166 73.4171 26.7715 73.4171 26.5234L73.381 26.4723ZM78.8697 26.2656C78.6025 26.6573 78.4885 27.1979 78.5641 27.7423C78.8232 27.7926 79.088 27.6979 79.3156 27.5513C79.3523 27.3032 79.2044 27.1062 79.1654 26.8573C79.0926 26.6603 79.0175 26.3649 78.8697 26.2656ZM71.6174 26.0175C71.3531 26.3107 71.0115 26.6543 71.0866 27.1468C71.2368 27.1979 71.4236 27.2017 71.5377 27.0521C71.5738 26.7558 71.6517 26.3649 71.654 26.0175H71.6174ZM74.2493 25.5912C74.0986 25.6423 73.9484 25.7889 73.9071 25.9859C73.9461 26.3806 73.9048 26.8227 73.9025 27.2174L73.9409 27.3633C74.0527 27.4144 74.1278 27.5129 74.278 27.5129L74.3192 26.8257C74.2808 26.5776 74.584 26.234 74.2831 26.037C74.2464 25.8874 74.3244 25.7408 74.2493 25.5912ZM77.145 25.168C76.9197 25.2161 76.6549 25.3116 76.4296 25.4582C76.2015 26.0499 76.1969 26.7875 76.1579 27.4784C76.1579 27.5769 76.1579 27.6754 76.233 27.6784C76.534 27.2837 76.8005 26.9401 77.1375 26.6476L77.1765 26.498C77.1037 26.0559 77.2544 25.6138 77.2567 25.168H77.145ZM75.7917 24.9611C75.5275 25.2092 75.2627 25.5024 74.9984 25.7438C74.9211 26.4347 74.7709 27.0738 74.7268 27.764C74.7657 27.8633 74.8408 27.9136 74.9159 27.8633C75.1417 27.7197 75.3309 27.4242 75.5951 27.2776C75.673 26.5392 75.6753 25.7979 75.9035 25.1107C75.9035 25.0603 75.8691 24.9137 75.7917 24.9611ZM70.3077 24.5798C69.9322 24.8212 69.5511 25.1174 69.139 25.2129C69.0255 25.655 69.061 26.1482 69.061 26.5933L69.1338 26.7399C69.5849 26.5963 69.8881 26.0084 70.2641 25.6136L70.3443 24.6783L70.3077 24.5798ZM72.8256 24.5475C72.6726 24.5956 72.5224 24.7414 72.4106 24.8407L72.1802 25.8745C72.1441 26.17 72.0662 26.5136 72.1779 26.8128C72.4399 26.8128 72.6651 26.5173 72.8548 26.2722L72.8984 24.6941L72.8256 24.5475ZM68.6174 24.4205C68.3531 24.6145 68.0889 24.8596 67.8241 25.0062L67.749 25.0536L68.2729 25.849C68.348 25.8972 68.4231 26.0942 68.5325 26.046C68.5371 25.5054 68.6151 25.0122 68.6535 24.519L68.6174 24.4205ZM71.3291 23.0589C71.0648 23.2559 70.8757 23.6476 70.9479 24.0897C70.7588 24.6815 70.8293 25.3213 70.7542 25.9634L70.7903 26.0619C70.902 26.0619 70.9771 25.916 71.0912 25.8175C71.2419 25.5724 71.5062 25.3784 71.3967 24.9837L71.438 23.4537C71.4018 23.304 71.5159 23.0116 71.3291 23.0589ZM75.3137 22.8867C75.1223 23.4281 74.8942 23.9717 74.8168 24.5604C74.8145 24.707 74.7417 24.904 74.8896 24.9581C75.1538 24.7611 75.418 24.4679 75.6439 24.1724L76.0972 23.8799L76.3643 23.1927C76.4004 23.0935 76.5122 22.9476 76.4394 22.798C76.0634 22.8454 75.6513 22.7439 75.3137 22.8867ZM77.1524 22.8041C76.8882 23.2431 76.7742 23.7364 76.5821 24.2266C76.5071 24.3251 76.4343 24.5732 76.5821 24.6717L77.4482 24.4303C77.5623 24.3822 77.7852 24.2394 77.897 24.4807C77.8219 25.1236 77.6299 25.6679 77.6276 26.304C77.6666 26.4536 77.6643 26.6032 77.7783 26.6032L78.2678 26.113C78.3796 25.916 78.6438 25.7694 78.6438 25.4769C78.1612 24.583 77.7124 23.695 77.3439 22.7537C77.3049 22.6582 77.1914 22.7537 77.1524 22.8041ZM74.7875 22.489C74.4115 22.489 74.0722 22.7822 73.7352 22.8777L73.393 23.6152C73.2789 24.204 73.1987 24.8438 73.2331 25.4866C73.2331 25.5851 73.2692 25.7347 73.3856 25.6355C73.7616 25.1934 74.1399 24.7039 74.4408 24.1626L74.5571 23.428C74.6345 23.1318 74.7852 22.9348 74.8603 22.5912L74.7875 22.489ZM69.0151 22.1552C68.826 22.2507 68.5978 22.3018 68.4133 22.1996L68.035 22.4928C67.8459 22.6424 67.6206 22.6868 67.4315 22.9349C67.4676 23.374 67.3535 23.8191 67.3512 24.3123C67.3512 24.4108 67.4263 24.5101 67.5014 24.5101C67.9914 24.2168 68.5205 23.8259 68.9349 23.2883C69.0105 22.9447 69.0128 22.5973 69.0902 22.2537C69.0902 22.2033 69.0518 22.1552 69.0151 22.1552ZM66.5339 22.0883C66.3837 22.2349 66.1556 22.2823 66.0077 22.48L66.7913 23.6191L66.9024 23.6665L66.9437 23.1763C66.9437 23.0778 66.8325 23.0748 66.7569 23.0748C66.6067 22.9251 66.6434 22.6296 66.6434 22.3845C66.6457 22.286 66.6846 22.0883 66.5339 22.0883ZM60.9237 21.4582C60.0605 21.3055 59.0833 21.2484 58.404 21.9837C57.9117 22.4258 57.7248 23.1641 57.6062 23.9017C57.5672 24.443 57.5672 24.9866 57.64 25.4799C57.9725 26.7625 58.7193 27.8535 59.6192 28.5467C60.9311 29.4444 62.3188 30.1444 63.8589 30.3542C64.7221 30.4594 65.5102 30.2647 66.3012 30.0707C66.7912 29.8324 67.3174 29.6384 67.7324 29.2467C67.3976 28.5535 66.8738 27.9587 66.5362 27.2648C65.9034 26.2753 65.1927 25.3814 64.5209 24.44C63.7712 23.5491 62.9493 22.7055 62.0884 22.0596C61.7124 21.8085 61.3364 21.6115 60.9237 21.4582ZM72.6485 21.4423L72.1195 22.1265C71.8529 22.7664 71.889 23.6024 71.775 24.3407C71.775 24.3919 71.8117 24.4904 71.8867 24.4934C72.3745 24.1498 73.017 23.6603 73.0944 22.8235C73.0973 22.3303 73.2864 21.9386 73.2887 21.4934L72.6485 21.4423ZM65.0351 21.1913C64.9961 21.2386 64.9961 21.2386 64.9961 21.2868C65.0328 21.3883 65.0712 21.4875 65.1085 21.3883C65.1469 21.3409 65.1469 21.1913 65.0351 21.1913ZM56.1263 21.4236V21.5221C56.277 21.4777 56.4662 21.4266 56.5413 21.1815C56.5803 20.9845 56.8422 20.8379 56.8445 20.5928C56.4685 20.4913 56.2793 21.083 56.1263 21.4236ZM83.6017 20.8732C83.5628 20.8732 83.5261 20.7266 83.4854 20.8251C83.3736 21.1687 83.2234 21.5123 83.1455 21.8559C83.2572 22.0055 83.4074 22.1551 83.5576 22.1551C83.6333 21.7611 83.7106 21.3183 83.6017 20.8732ZM70.5599 20.5394C70.2956 20.9303 69.9924 21.2228 69.7672 21.5702L69.6892 22.0085C69.539 22.801 69.4204 23.5867 69.3063 24.3761C69.3035 24.5227 69.4565 24.5257 69.5316 24.4746C69.8686 24.131 70.2859 23.7904 70.475 23.2972C70.5536 22.5115 70.5186 21.6717 70.7106 20.9333C70.7106 20.7837 70.7106 20.5394 70.5599 20.5394ZM66.2405 20.4085C66.0513 20.5581 65.8232 20.7047 65.6363 20.8987L65.52 21.8844C65.5177 21.9325 65.5177 22.034 65.5951 22.034C65.7819 21.837 66.01 21.7859 66.1969 21.5446C66.4611 21.1979 66.9902 20.9589 66.9535 20.3671C66.7282 20.3641 66.4663 20.5611 66.2405 20.4085ZM64.1352 20.2461C64.1742 20.4438 64.2854 20.4942 64.3971 20.5453L64.4384 20.2017C64.4751 19.807 64.1742 20.1506 64.1352 20.2461ZM76.452 20.0838H76.4125C76.2233 20.2335 76.1459 20.5297 76.1459 20.8252C75.9952 21.2169 75.7676 21.5605 75.6169 21.9545C75.5395 22.0026 75.5395 22.1522 75.6536 22.1522C76.0296 22.1552 76.4417 22.2063 76.7426 22.0086C76.8567 21.9642 77.0068 21.9139 77.0068 21.7673L76.452 20.0838ZM74.7973 19.8807C74.419 20.3198 74.1547 20.8604 73.9289 21.3506C73.8876 21.6461 73.6985 21.8942 73.8103 22.1393C74.3003 22.095 74.6419 21.4078 75.1681 21.3123C75.4329 21.0672 75.6971 20.574 75.6994 20.1319L74.7973 19.8807ZM73.5191 19.871C73.3323 19.9184 73.2933 20.1635 73.2572 20.3101C73.2159 20.5071 72.9929 20.6537 73.0629 20.9018C73.2159 20.953 73.4028 20.8537 73.5919 20.759C73.7421 20.4627 73.9702 20.1673 74.0453 19.8229C73.8584 19.8199 73.6693 19.9184 73.5191 19.871ZM63.3322 20.8822C62.806 20.4852 62.2821 20.1379 61.7222 19.8867C60.405 19.2852 58.7898 19.4702 57.6956 20.4499C56.7912 21.2837 56.4129 22.5626 56.1796 23.8445C56.0948 26.3039 57.0262 28.3339 58.4866 29.7722L59.2358 30.4173C60.8102 31.4647 62.5343 32.0692 64.4894 32.0819C65.2047 31.9895 65.9905 32.091 66.6721 31.7985C67.9118 31.4647 68.9664 30.3384 70.1357 29.6061C70.7398 29.167 71.4529 29.0722 72.1298 28.8775L72.9952 28.9858C74.1204 29.4376 75.1681 30.3827 75.8766 31.8143C76.3277 32.5556 76.585 33.3481 76.8808 34.1879C77.1066 34.9804 77.2155 35.7661 77.3221 36.6059L77.4287 38.0374C77.4241 39.663 76.9301 41.1396 75.9104 42.0689C74.9286 43.096 73.5776 43.0358 72.2994 42.9306C71.0963 42.9245 70.0801 43.411 69.0272 43.796C67.9749 44.3817 66.7689 44.9132 65.5687 44.5117C64.4407 44.0095 63.3568 42.9689 62.6851 41.5847C62.2386 40.4968 61.756 39.3577 61.533 38.1269L61.3507 37.4329C61.094 35.9029 61.1375 34.0323 61.6694 32.6541C61.5204 32.406 61.2562 32.5015 61.106 32.406L60.9553 32.4511C60.6498 33.4368 60.5334 34.5699 60.4898 35.7022L60.526 36.7397C60.6331 38.0187 61.004 39.2562 61.3754 40.3915C62.0082 41.7757 62.6799 43.2584 63.7277 44.2035C64.7003 45.244 66.0152 45.7974 67.3684 45.4125C67.9697 45.1704 68.6076 45.0275 69.2118 44.6358C70.189 44.2959 71.1324 43.7614 72.2215 43.8185C73.0875 43.9711 73.9874 43.7802 74.8529 43.6403C76.3959 43.3065 77.5697 41.2923 77.9526 39.4216C78.1807 38.5374 78.1469 37.4999 78.1154 36.5134C78.0059 35.133 77.5961 33.8984 77.1501 32.6639C76.5558 31.2767 75.7723 29.8421 74.7245 28.8489C74.2757 28.4512 73.7856 28.2031 73.3008 28.0001C72.5488 27.7993 71.7583 27.8918 71.0453 28.0347C69.8784 28.3211 68.9349 29.2534 67.9164 30.0835C66.4101 31.3053 64.3799 31.391 62.5779 30.9842C61.1496 30.5797 59.8376 29.8324 58.642 28.7377C57.4801 27.4971 56.6599 25.7663 56.9316 23.6979C57.048 22.6641 57.5042 21.6814 58.2562 21.0957C59.7671 19.8228 61.7921 20.6281 63.1024 21.8686L64.8603 23.7558C66.2089 25.1904 67.2544 27.0738 68.4861 28.7572C68.673 28.6106 68.9011 28.5151 69.0518 28.27L68.3795 27.2302C67.4825 25.6964 66.437 24.452 65.3893 23.0175C64.9405 22.5724 64.5307 21.9769 64.0819 21.5792L63.3322 20.8822ZM68.4993 19.3906C68.2339 19.6357 67.9336 19.8297 67.6717 20.0236C67.6304 20.3199 67.5186 20.5169 67.4412 20.765C67.3272 21.2071 67.2492 21.6492 67.1719 22.0913C67.1352 22.1905 67.208 22.2409 67.2836 22.2409C67.737 22.0469 68.113 21.6048 68.4185 21.1627C68.4575 20.571 68.5325 20.0808 68.6128 19.5372C68.6128 19.4417 68.6128 19.3394 68.4993 19.3906ZM56.3979 19.0117C55.9858 19.1583 55.6098 19.4989 55.1949 19.744L54.9283 20.5771L54.965 20.6282C55.3043 20.5801 55.6052 20.1891 55.9423 20.0906C56.2065 19.947 56.3956 19.6042 56.3979 19.2094V19.0117ZM62.7138 18.5123L62.1102 18.9033V19.0026C62.5636 19.1522 62.9373 19.5018 63.3494 19.6988C63.4245 19.5048 63.5024 19.3552 63.4634 19.1071H63.3156C63.1236 19.0567 62.9757 19.2537 62.8232 19.1552C62.7115 19.0056 62.9029 18.5635 62.7138 18.5123ZM64.8579 18.4296C64.557 18.3785 64.2928 18.7191 64.0286 18.8175C63.9145 19.0153 63.9145 19.2596 63.9535 19.5085C64.177 19.4574 64.4023 19.2634 64.6665 19.2153C64.7416 18.9702 64.8557 18.7732 64.8941 18.5281L64.8579 18.4296ZM70.4555 18.1244C70.2303 18.4169 69.966 18.662 69.7018 18.856C69.515 19.0026 69.3258 19.0499 69.1751 19.1965C69.061 19.8868 69.0197 20.6281 68.979 21.3183C69.2043 21.3183 69.3934 21.1213 69.5442 20.9243C69.8835 20.4852 70.1867 19.995 70.526 19.5018L70.5312 18.2703C70.5312 18.2199 70.5335 18.1244 70.4555 18.1244ZM72.3716 18.7762C72.1051 19.365 71.654 19.8552 71.2757 20.2461L71.1542 22.4641H71.1909C71.5692 22.025 71.9452 21.6333 72.2507 21.0927C72.3647 20.7491 72.59 20.504 72.8548 20.2115C73.1941 19.7183 72.5172 19.9123 72.4083 19.6161C72.2552 19.0214 72.7476 18.5823 72.7866 18.0379C72.4518 17.9394 72.4857 18.5311 72.3716 18.7762ZM58.3972 17.8922C58.0963 17.8892 57.7931 18.035 57.4922 18.0831C57.2279 18.5252 57.1139 19.0658 56.9608 19.556L56.9585 19.7568C57.0726 19.8042 57.1867 19.7057 57.2979 19.6575C57.487 19.6102 57.7489 19.6613 57.902 19.5147C58.0888 19.0245 58.2442 18.4809 58.4333 17.9907L58.3972 17.8922ZM59.3716 17.8478C59.2237 17.8981 59.1463 18.0929 58.9956 18.0447C58.8821 18.3372 58.6924 18.5823 58.7681 18.8816L59.8594 18.544L59.8983 17.9019C59.7889 17.653 59.5246 17.7996 59.3716 17.8478ZM75.9711 17.6184C75.7092 17.8124 75.4037 18.0575 75.2558 18.4041C75.1778 18.7477 74.8775 18.9417 74.8746 19.2379C75.2873 19.5372 75.9253 19.5913 76.3035 19.1485L76.119 17.9139C76.0829 17.8154 76.0852 17.6184 75.9711 17.6184ZM82.112 17.2176C81.8455 17.7582 81.5062 18.2958 81.4259 18.983C81.501 19.4288 81.916 19.483 82.1757 19.7311L82.2507 19.6799L82.1825 18.792C82.1075 18.2995 82.1848 17.7108 82.112 17.2176ZM85.1585 16.9913L85.0421 17.0364C84.9647 17.5327 84.814 17.9748 84.7727 18.5153C84.7727 18.665 84.7727 18.8116 84.9235 18.7604C85.3018 18.5183 85.566 17.9778 85.8669 17.5387C85.9059 17.4883 85.9443 17.3417 85.8692 17.2432L85.1585 16.9913ZM74.3342 16.9184C73.73 17.5041 73.2016 18.2898 72.8594 19.174C72.8571 19.2725 72.9345 19.2251 72.9711 19.2725C73.4973 19.2281 74.0235 19.2311 74.4769 18.9387C74.7417 18.4484 75.0449 17.956 75.3452 17.4176L75.3068 17.3673C75.0082 17.2176 74.6712 17.068 74.3342 16.9184ZM68.8454 16.9281L68.8116 16.8296C68.3577 17.2206 67.8676 17.3672 67.3781 17.6567C67.2641 18.2958 67.1087 18.986 66.9586 19.5747C67.2176 19.6769 67.3707 19.3845 67.5988 19.2852L68.7314 17.9619L68.8454 16.9281ZM67.0795 16.7659L67.0434 16.7185C66.8927 16.8644 66.7798 17.1095 66.6674 17.2561C66.2502 17.5997 65.8742 17.8952 65.4959 18.2869C65.3818 18.726 65.2288 19.123 65.1514 19.5658C65.1153 19.8613 65.0374 20.1545 65.1124 20.45C65.2999 20.453 65.3772 20.256 65.4884 20.1094C65.5664 20.059 65.6776 20.1094 65.7894 20.0139L66.4319 19.3267C66.5849 18.6395 66.6651 17.9463 67.0022 17.3576L67.0795 16.7659ZM60.953 17.02C60.7661 17.1666 60.577 17.3162 60.4268 17.4628C60.3517 17.7583 60.3494 18.153 60.4606 18.3981C60.6475 18.4011 60.8005 18.2041 60.9897 18.0575C61.3657 17.8636 61.2562 17.2718 61.4453 16.8771C61.4843 16.3365 61.067 16.8741 60.953 17.02ZM73.1672 16.6132C73.1672 16.9568 72.7161 17.3989 73.0921 17.5485L73.6939 16.8613C73.7323 16.8132 73.7713 16.7147 73.7352 16.6162C73.5432 16.6132 73.3202 16.4666 73.1672 16.6132ZM59.042 16.368C58.7772 16.565 58.5497 16.759 58.3605 17.0553V17.1537H58.6609C58.8116 17.0553 59.0759 17.0583 59.0759 16.7116C59.0397 16.6132 59.1532 16.4154 59.042 16.368ZM83.3151 16.2372L83.279 16.2854C83.2424 16.4823 83.3902 16.632 83.5043 16.7846C83.5771 16.8801 83.7278 16.8327 83.8052 16.7342C84.031 16.5365 84.0671 16.9823 84.254 17.0838C84.3681 17.0838 84.5549 17.135 84.6661 16.9884C84.7051 16.8869 84.7051 16.6929 84.5933 16.6417C84.1812 16.4921 83.7691 16.2884 83.3151 16.2372ZM72.1951 16.0658C72.0833 16.0147 71.9692 16.1613 71.8941 16.2087C71.2539 16.5019 71.2488 17.4372 71.0596 18.1274C71.0206 18.5222 70.9799 18.9643 71.0183 19.359H71.0911C71.431 19.0154 71.6586 18.5252 71.9234 18.0831C72.1486 17.5417 72.4908 17.0011 72.7212 16.4124C72.6095 16.3139 72.418 16.3139 72.3063 16.2598L72.1951 16.0658ZM62.8398 15.8522C62.5756 16.0462 62.3113 16.1417 62.0832 16.3906C61.858 16.9312 61.819 17.5199 61.8167 18.1116C61.8167 18.2101 61.8505 18.3567 61.9646 18.2612C62.3406 18.1176 62.6048 17.6244 62.947 17.38C63.0582 17.0364 63.2112 16.6928 63.2502 16.2981H63.1384C62.9883 16.1996 62.9516 15.9515 62.8398 15.8522ZM81.7774 15.8846C81.2879 16.4695 81.0208 17.256 80.6425 17.8981C80.4871 18.977 80.7078 19.9694 80.8557 20.9559C81.0041 21.5476 81.4524 21.6972 81.7923 21.9965C82.0903 22.2446 82.4663 22.2949 82.7672 22.5942C82.9151 22.6453 83.102 22.8423 83.255 22.7438C82.6171 22.0506 81.9086 21.4551 81.3068 20.7108C81.1228 20.0206 80.9021 19.2792 81.0162 18.4898C81.1715 17.9018 81.4329 17.3093 81.739 16.7688C81.8891 16.4763 82.1511 16.2793 82.3012 15.9861C82.1534 15.8334 81.9281 15.6868 81.7774 15.8846ZM64.1547 16.056L63.7351 16.8928C63.5844 17.3349 63.3929 17.7297 63.354 18.2199C63.354 18.3695 63.4296 18.468 63.5047 18.4199C63.9191 18.1748 64.3341 17.9334 64.7124 17.5417L64.9382 16.7049C65.0156 16.2598 65.207 15.7666 65.2827 15.3275C64.9067 15.5696 64.5307 15.7635 64.1547 16.056ZM70.7713 14.8696C70.4314 15.1147 70.1311 15.4071 69.8302 15.6996C69.5998 16.3906 69.374 17.0808 69.2943 17.8184C69.2943 17.965 69.2576 18.1627 69.4055 18.2131C69.9322 18.0191 70.3105 17.2845 70.6888 16.6958C70.7272 16.1515 70.73 15.5598 70.8464 15.0192C70.8464 14.9207 70.8074 14.8726 70.7713 14.8696ZM75.4547 15.2989L75.1177 15.6907C74.9646 15.9861 74.6614 16.0816 74.5863 16.3779C74.7732 16.5267 74.924 16.626 75.1125 16.6733C75.3722 16.7275 75.7482 16.9282 75.9373 16.6801C75.9757 16.1388 75.8645 15.6937 75.9058 15.2035C75.9081 14.6117 75.5298 15.1493 75.4547 15.2989ZM84.4139 14.9139C83.9995 14.8124 83.5117 14.7613 83.2475 15.1523C83.1724 15.2515 83.2062 15.4011 83.2813 15.4996C83.8855 15.6996 84.4844 15.9034 85.0857 16.1515C85.4984 16.3041 85.8354 16.6989 86.2842 16.7019C86.3593 16.7019 86.4343 16.6545 86.4343 16.5049C86.4005 16.3109 86.2114 16.3071 86.1363 16.2568C85.5734 16.1545 85.2364 15.6109 84.8266 15.1651L84.4139 14.9139ZM66.488 15.1365C66.2989 15.3342 66.0708 15.3305 65.8839 15.4801C65.6925 16.0688 65.4282 16.6064 65.3142 17.2492C65.3113 17.3477 65.2385 17.4973 65.348 17.4973C65.6873 17.3988 65.9521 16.9567 66.2937 16.7116C66.558 16.4192 66.7087 16.0244 67.009 15.7823C67.4246 15.538 67.3512 14.847 67.4653 14.4049C67.1283 14.647 66.8279 14.9425 66.488 15.1365ZM61.38 14.017C60.8149 14.5545 60.2497 15.0448 59.7963 15.6335C59.6433 16.1259 59.4931 16.6162 59.5269 17.1567C59.7138 17.2109 59.8668 16.9628 60.0508 16.9184C60.354 16.6703 60.6183 16.4282 60.8825 16.1327C60.9215 15.6425 61.1135 15.2478 61.1914 14.7553C61.227 14.5102 61.38 14.2651 61.38 14.017ZM74.38 14.1057C73.8539 14.4974 73.4028 14.9869 72.9465 15.6237C72.9104 15.6749 72.8714 15.7733 72.9465 15.8718C73.3615 15.9733 73.8493 15.9771 74.3003 15.8816C74.6758 15.6869 74.9429 15.0982 75.2438 14.7042C74.9818 14.4561 74.6832 14.208 74.38 14.1057ZM88.4404 13.6605C88.3241 13.8575 88.2484 14.0552 88.2461 14.2996C88.21 14.5958 88.0959 14.8439 87.9068 14.9394C87.6059 15.1334 87.7927 15.6778 87.5285 15.8747C87.2637 16.1168 86.9995 16.4093 86.8854 16.7559C86.8493 16.8071 86.8854 16.9025 86.9605 16.9025C87.1863 16.9567 87.4093 16.8582 87.6007 16.6131C87.9796 16.0244 88.2828 15.4326 88.547 14.7454C88.6221 14.5003 88.8136 14.2552 88.6995 13.9567C88.6634 13.8605 88.5516 13.6635 88.4404 13.6605ZM72.6192 13.3553L71.7898 13.9914C71.2975 14.332 71.4064 15.1718 71.2952 15.7605L71.3313 15.9102C71.5571 15.9102 71.6683 15.5666 71.8575 15.4199L72.539 14.9297L73.8223 13.7079L73.7833 13.6606C73.3689 13.6064 73.0313 13.3102 72.6192 13.3553ZM63.6767 12.9478C63.2233 13.193 62.7745 13.2884 62.3211 13.4824C61.8677 14.1185 61.6373 14.908 61.4866 15.7448C61.4866 15.8433 61.5617 15.8906 61.6345 15.8433C62.0494 15.6012 62.5028 15.4546 62.8427 14.9651C63.0319 14.6689 63.3689 14.72 63.4463 14.3253C63.5603 13.9343 63.6354 13.4884 63.7523 13.0975C63.7523 12.999 63.7523 12.9005 63.6767 12.9478ZM84.4191 12.9448C84.3463 12.9921 84.2322 13.0906 84.3073 13.1899L85.1321 13.638C85.5419 13.9372 85.993 14.335 86.33 14.7801C86.5919 15.0282 86.8149 15.6237 87.1909 15.3304C87.2299 15.1816 87.0803 15.0319 87.043 14.8823C86.2939 13.9402 85.5488 12.4576 84.4191 12.9448ZM76.1918 12.6396C76.0416 12.69 75.9276 12.7381 75.8158 12.884C75.4398 12.9795 75.0982 13.1772 74.7973 13.4186L74.7583 13.6163C74.9474 13.9118 75.285 13.9629 75.5103 14.1636C75.6972 14.217 75.884 14.4148 76.0342 14.1667C76.1121 13.7246 76.1901 13.2344 76.2669 12.7381L76.1918 12.6396ZM65.8965 11.9297C65.3698 12.3177 64.8436 12.6613 64.3897 13.1989C64.2344 13.9372 63.895 14.5771 63.7059 15.3146L63.7036 15.4642C63.9655 15.3658 64.1937 15.2703 64.4212 15.1237C64.8339 14.6816 65.2483 14.2906 65.5544 13.7493L65.6271 13.5049C65.7051 12.9636 65.8209 12.4703 65.8965 11.9297ZM69.7694 11.9554C69.2748 12.741 68.7119 13.4756 68.0694 14.014L68.0666 14.5064C67.9141 14.9996 67.7249 15.4387 67.647 15.9831L67.6447 16.6222L67.6814 16.7718C67.8705 16.8229 67.9846 16.6733 68.1325 16.5304C68.2849 16.2823 68.5131 16.2342 68.6248 15.9891C68.8501 15.6936 69.1533 15.4011 69.3424 15.1079C69.3837 13.9726 69.578 12.9418 69.8445 11.9554C69.8445 11.8569 69.7694 11.9554 69.7694 11.9554ZM70.4435 11.9102L70.4074 11.8117C70.2933 11.9584 70.2543 12.2065 70.2543 12.4035C70.0652 12.9922 69.9488 13.632 69.9465 14.2748C69.9465 14.4718 69.8686 14.7169 70.0193 14.7681C70.4727 14.6726 70.7759 14.0327 71.1519 13.6891C71.3416 13.1989 72.1298 13.1072 71.8724 12.4132C71.7217 12.3621 71.6076 12.4613 71.4964 12.5087L70.7782 12.9478C70.7031 12.9952 70.5913 13.0463 70.5163 12.8967L70.4435 11.9102ZM74.278 11.4937C73.9409 11.8854 73.5626 12.229 73.2984 12.7184C73.4102 12.8681 73.6377 12.8207 73.7856 12.8681C73.8997 12.9192 73.8997 13.1673 74.0475 13.1162L75.2529 12.3876L75.4037 12.2418C75.2558 11.9936 74.9916 11.844 74.768 11.6944C74.5812 11.6944 74.4706 11.4937 74.278 11.4937ZM86.6819 11.5292C86.3833 11.3314 85.9689 10.9818 85.6313 11.2743C85.6313 11.3728 85.6313 11.472 85.668 11.472C86.4538 11.8247 87.1278 12.6683 87.6884 13.457C87.7635 13.5585 87.8752 13.5111 87.9503 13.4126C88.1395 12.8209 87.5038 12.4705 87.2786 12.0765L86.6819 11.5292ZM67.6665 10.9562L67.1403 11.3479C66.9535 11.4938 66.6892 11.4396 66.5729 11.6877C66.5339 12.6231 66.1556 13.4095 66.1143 14.3478C66.1143 14.4433 66.1504 14.4433 66.2261 14.4433C66.6044 14.1027 66.9437 13.7118 67.3174 13.4666C67.698 13.1734 67.776 12.6809 67.7783 12.1396C67.7393 11.793 67.9284 11.5005 67.8172 11.1532C67.8172 11.0547 67.7829 10.9051 67.6665 10.9562ZM88.3384 10.9974C88.183 11.9839 89.1603 11.6944 89.3082 12.4861C89.4199 12.7312 89.3059 12.929 89.3426 13.1733C89.4176 13.323 89.5294 13.323 89.6796 13.323C90.0579 13.129 90.1352 12.5884 90.1719 12.0952C90.1014 11.7486 89.9123 11.3538 89.6893 11.1057C89.2772 10.8576 88.7144 10.5553 88.3384 10.9974ZM64.3266 10.5869C63.8342 11.1245 63.3419 11.7614 62.8496 12.3019C62.8134 12.3501 62.7768 12.4486 62.8134 12.4989C63.2255 12.3531 63.5677 12.0636 64.0188 12.0125C64.283 11.6719 64.3971 11.1313 64.3633 10.6381L64.3266 10.5869ZM86.8734 10.6441C86.6842 10.6411 86.4589 10.59 86.3443 10.7396C86.3443 10.7877 86.3443 10.8388 86.3833 10.8388C86.796 11.0358 87.1691 11.3351 87.5451 11.6336C87.6202 11.4877 87.6592 11.2396 87.6592 11.0418C87.4362 10.7967 87.0963 10.8418 86.8734 10.6441ZM83.7909 10.5231C82.8887 11.1088 82.0564 11.99 81.0402 12.1809C80.3662 12.2764 79.6893 12.0727 79.3156 11.3795L79.2772 11.4306C79.1631 11.9231 79.3499 12.3178 79.6119 12.617C80.1335 13.3072 81.0379 13.2148 81.6782 12.9253C82.6193 12.4388 83.3736 11.5095 84.1279 10.5268C84.0161 10.4757 83.9049 10.5231 83.7909 10.5231ZM75.9373 10.272C75.6003 10.5682 75.2243 10.7111 74.9601 11.0547L74.9939 11.1532L76.3471 11.9043L76.4199 11.8532C76.5724 11.4081 76.6864 10.9179 76.7277 10.3773L75.9373 10.272ZM68.5325 10.4186C68.3457 10.9088 68.3044 11.5005 68.2654 12.0441C68.1881 12.3403 68.2242 12.6839 68.2608 12.932C68.6002 12.735 68.9034 12.2959 69.1687 11.8531C69.2817 11.6087 69.1705 11.3095 69.2094 11.0133C69.2094 10.5712 69.3229 10.1802 69.3258 9.73436C68.9882 9.82985 68.7968 10.2246 68.5325 10.4186ZM76.8807 9.39071C76.7305 9.53733 76.507 9.58469 76.4296 9.83281C76.5414 9.93205 76.6526 9.88393 76.7666 9.88393C76.9168 9.88393 76.9535 9.68995 76.9924 9.49297C76.9924 9.44184 76.9558 9.34335 76.8807 9.39071ZM75.8307 8.9389C75.5298 8.88777 75.5659 9.33362 75.4524 9.53061C75.3774 9.67722 75.3384 9.92232 75.4135 10.0208C75.6003 9.92533 75.8279 9.77872 76.0147 9.53436C75.9419 9.33663 75.9058 9.13964 75.8307 8.9389ZM87.744 8.67793C87.407 8.47794 87.0699 8.52531 86.7667 8.66891C86.5048 8.71929 86.3518 8.96139 86.0898 8.96139C85.6387 9.10725 85.1877 9.34935 84.7343 9.49596C84.2465 9.63881 83.7203 9.58468 83.2693 9.77866C82.2507 10.2659 81.4672 9.22529 80.451 9.41626C80.1111 9.46363 79.7351 9.65836 79.6216 10.1005C79.5075 10.4944 79.5826 10.9403 79.8056 11.1884C80.3272 11.9297 81.2706 11.5891 81.8724 11.2997C82.7379 10.8132 83.4561 9.78242 84.5062 9.88693C84.9572 9.89069 85.3361 9.69595 85.7482 9.50197C86.5019 9.06289 87.4408 9.26664 88.1154 9.76588C88.4547 9.86512 88.6754 10.6065 89.0176 10.1636C89.1316 9.76964 88.7556 9.4734 88.5688 9.22529L87.744 8.67793ZM76.3959 8.40129C76.3202 8.40129 76.2841 8.49979 76.2841 8.55091C76.2428 8.7479 76.2818 8.94188 76.393 9.0915C76.507 9.14263 76.6188 8.94564 76.7328 8.85015C76.699 8.65242 76.4709 8.55091 76.3959 8.40129ZM66.5895 7.93962C66.061 8.47795 65.532 9.01854 65.0809 9.65462L64.8092 11.723V11.9711H64.8459C65.258 11.6275 65.787 11.3854 66.0536 10.7463L66.4731 8.58246C66.4731 8.33435 66.6651 8.14037 66.6261 7.93962H66.5895ZM67.7955 7.74939C67.6058 7.84788 67.3805 7.74939 67.2664 7.99751C66.9999 8.8817 66.6967 9.76589 66.6554 10.7493L66.6916 10.8005C67.0676 10.5554 67.5209 10.3614 67.8218 9.91927C67.8608 9.18094 67.9795 8.44261 68.1296 7.80352L67.7955 7.74939ZM75.159 7.70439C74.9721 7.55477 74.783 7.848 74.5961 7.79988C74.5182 7.94649 74.6322 7.99762 74.7073 8.09611C74.9308 8.39159 75.2679 8.44272 75.6072 8.34723C75.6851 8.29986 75.833 8.24874 75.7963 8.05175C75.5344 8.05175 75.3452 7.90213 75.159 7.70439ZM82.2238 7.70135C82.0736 7.94946 81.9596 8.29306 81.9934 8.63666C82.0685 8.88477 82.1825 9.18101 82.3671 9.23213C82.5952 9.381 82.8932 9.33664 83.1185 9.18702C83.3082 9.13966 83.4217 8.84718 83.4607 8.59832C83.4607 8.30283 83.4269 8.0066 83.3128 7.75849C83.0532 7.36451 82.5247 7.46 82.2238 7.70135ZM77.3393 7.27502C77.1501 7.52013 76.6624 7.66674 76.7741 8.10884C76.8853 8.30582 77.0361 8.40808 77.2229 8.45544C77.4121 8.21034 77.4894 7.81937 77.5622 7.47201C77.5284 7.32615 77.4144 7.27502 77.3393 7.27502ZM77.572 6.04345C77.4579 6.14269 77.196 6.23818 77.3049 6.4863C77.419 6.58479 77.5307 6.73442 77.6809 6.78178C77.8288 6.6863 77.8316 6.39081 77.9067 6.19307C77.9841 5.89758 77.6838 5.94871 77.572 6.04345ZM73.4366 5.81786C73.3638 5.81786 73.3638 5.91635 73.3638 5.96748C73.5868 6.46071 73.7713 7.00431 74.1473 7.30356C74.2591 7.45017 74.446 7.5013 74.5571 7.40205C74.6735 7.35468 74.7102 7.20807 74.6345 7.10957C74.2614 6.61334 73.9267 5.97049 73.4366 5.81786ZM84.2614 5.4487C84.1497 5.49682 84.1107 5.59531 84.1107 5.6938C84.0746 5.93891 84.1858 6.08853 84.3336 6.23815C84.4477 6.23815 84.5962 6.33965 84.7125 6.19304C84.8237 5.99605 84.6374 5.84643 84.5984 5.64945C84.4867 5.59832 84.3755 5.4487 84.2614 5.4487ZM80.8803 5.17804C80.6958 5.12767 80.4676 4.98106 80.2814 5.12466C79.8641 5.31864 79.4514 5.85923 79.413 6.45094C79.4468 6.84567 79.5219 7.2404 79.7839 7.48851C80.6814 8.23586 81.5498 7.25619 82.4153 7.06221C83.2039 6.87123 83.7278 7.66294 84.3268 8.1118L84.8168 8.16594C84.8529 8.21331 84.8168 8.31255 84.8168 8.31255C84.7005 8.55766 84.5136 8.55766 84.3245 8.60503C84.1353 8.65239 83.9485 8.40428 83.8367 8.55089C83.8367 8.70051 83.7599 8.99599 83.8734 9.04411L84.5136 8.99975C85.1516 8.75765 85.7918 8.46518 86.393 8.07722L86.432 7.97797C86.095 7.43438 85.6072 7.08401 85.1974 6.7374C84.9355 6.3908 84.7074 6.93138 84.407 6.73139C83.9215 6.28554 83.2423 6.6735 82.7185 6.42237C82.1562 5.87878 81.5544 5.3818 80.8803 5.17804ZM78.9373 2.80211L78.8232 2.8976C78.7435 3.63893 78.7796 4.47199 78.6656 5.21333C78.3526 7.57718 77.482 9.59443 77.0579 11.9072C76.7885 13.5334 76.7082 15.4544 76.9243 17.1822C77.0338 18.4138 77.3295 19.5972 77.623 20.7836C77.9577 22.1167 78.5544 23.4024 79.4514 24.2963C79.7133 24.6429 80.0555 24.252 80.3903 24.3024C81.1056 24.1595 81.6294 24.6557 82.3064 24.7099C82.7597 24.7129 83.2475 24.6174 83.5845 24.1242C83.6619 24.0294 83.6619 23.8317 83.5507 23.7332C82.5001 23.1355 81.375 22.731 80.5525 21.5919C80.1816 20.6536 80.1501 19.5205 80.0022 18.4326C80.1553 17.9431 80.2687 17.5003 80.4946 17.1063C80.8367 16.4191 81.1394 15.6838 81.6294 15.1432C81.9693 14.9966 82.2318 15.4424 82.5683 15.3432C82.7964 15.2988 82.6852 14.9041 82.8348 14.7071C82.9856 14.459 83.2114 14.3161 83.4756 14.268C84.1542 14.1725 84.865 14.3763 85.3888 14.971C85.6898 15.3184 85.9878 15.7161 86.4005 15.865C86.4366 15.865 86.5507 15.9161 86.5507 15.8176C85.7671 14.6274 84.7922 13.8319 83.706 13.5297L83.6693 13.3838C83.6304 13.1319 83.7834 12.9861 83.9313 12.7921C84.2735 12.4485 84.6879 12.2575 85.1367 12.356C86.0027 12.6071 86.6745 13.4026 87.3072 14.2936C87.3829 14.3921 87.5336 14.3447 87.6471 14.2492C87.6832 14.15 87.6082 14.0485 87.5354 13.95C86.8613 13.2056 86.2646 12.2665 85.4765 11.9169C85.2146 11.8154 84.9498 11.9613 84.7268 11.7613C84.6879 11.7132 84.6518 11.5636 84.7268 11.5162C85.0662 11.1726 85.3694 10.6824 85.7454 10.441C86.3105 10.0493 87.1743 10.1034 87.7004 10.4531C87.8483 10.5012 87.9985 10.8478 88.1492 10.6508C88.1876 10.5523 88.1876 10.4057 88.1492 10.3072C87.7755 9.90946 87.2883 9.75984 86.8372 9.70571C86.0852 9.79819 85.4834 10.2884 84.8042 10.5328C84.1256 11.5132 83.3713 12.2959 82.617 13.0304C81.8237 13.6665 80.8471 13.953 79.9076 13.6507C79.3448 13.3515 78.7848 12.6583 78.712 11.8184C78.7143 11.3763 78.7917 10.9342 79.0565 10.5899C79.0949 10.2944 79.0949 9.95081 79.2112 9.65458C79.4761 8.86588 80.1914 8.7734 80.8293 8.82753C81.0546 8.82753 81.2414 9.07565 81.4672 8.98016L81.4718 8.28995L81.4328 8.23882C80.7932 8.58242 79.9294 8.52528 79.4055 7.93056C79.1046 7.68245 78.9184 7.28772 78.884 6.7945C78.7728 6.39977 78.8863 5.95467 79.0393 5.5637C79.3786 4.97123 79.7959 4.48177 80.3587 4.48478C81.4477 4.49455 82.2697 5.28626 83.1695 5.93587C83.3226 5.98624 83.4705 6.08549 83.6206 5.93587L83.7009 5.24867L83.6258 5.10205C83.0996 4.65319 82.5391 4.25546 81.9762 3.90584C80.9628 3.45397 80.0263 2.95474 78.9373 2.80211ZM8.51375 2.56304C7.31526 1.36984 5.62728 0.867592 4.12099 1.49765C2.53962 2.17809 1.254 4.2397 1.09408 6.45393C1.09408 6.55618 0.982317 6.60355 1.05511 6.70204C0.938756 7.58699 0.975439 8.42682 0.97028 9.31477C1.11587 10.7937 1.40933 12.1267 1.81914 13.4124C2.78493 16.4733 4.84146 18.8529 6.86188 20.8889C8.58368 22.3814 10.3083 23.822 12.1442 24.8693C13.4178 25.7151 14.7687 26.3166 16.1587 26.7204C17.3979 27.0738 18.6394 26.4918 19.7651 27.1407C20.9269 27.691 21.5212 29.2722 21.9672 30.6053C22.4888 32.1391 22.7071 33.8157 22.9616 35.4924C23.2213 37.0735 23.74 38.5051 24.4484 39.8419C24.8221 40.6336 25.3821 41.2764 25.8676 41.9734C26.6528 43.2584 27.8146 44.0538 28.3339 45.5365C28.5936 46.2778 28.7392 47.4643 28.3603 48.1996C28.2852 48.4477 28.0961 48.5906 28.0577 48.8387L28.7678 49.7778L29.5152 51.0183C30.0001 52.0551 30.2575 53.1912 30.3274 54.4228C30.3641 55.116 30.3612 55.8543 30.3956 56.5445C30.5068 56.643 30.5825 56.4934 30.696 56.449C30.9969 56.1566 31.3339 56.452 31.5964 56.6528C31.8578 57.1934 32.3066 57.6904 32.3043 58.4309C32.302 59.0708 31.9621 59.5129 31.5838 59.9046L31.5454 60.0031C32.2171 61.0429 32.7771 62.179 33.4489 63.1684C34.1963 64.6541 34.9792 66.1368 35.7244 67.6225C36.3961 68.7615 37.359 69.866 38.295 70.4164H42.5955L42.7044 70.1871C42.8185 69.8916 42.7067 69.5442 42.7067 69.2006C42.6706 68.9525 42.5227 68.7044 42.486 68.4089C42.6001 68.1638 42.8643 68.0653 43.0151 67.8713C42.9784 67.2285 42.2264 67.3713 42.2298 66.6811C42.1565 66.1879 41.8951 65.7428 41.5959 65.4466C41.4091 65.2466 41.1838 65.2428 41.072 64.9977C41.2984 64.6541 41.5959 65.0488 41.8601 65.103C42.2728 65.4977 42.7577 65.9939 42.6803 66.7353C42.9423 67.0307 43.2799 67.0819 43.5412 67.4285C43.7281 67.4322 43.806 67.0886 43.8834 66.8398C43.6966 66.4932 43.3957 66.3917 43.0947 66.3435C42.8328 66.3405 42.7967 65.9428 42.76 65.7014C42.462 65.106 41.9742 64.7052 41.5621 64.3105C41.1494 64.012 40.512 64.1549 40.0971 64.3519C39.9079 64.5428 39.7549 65.036 39.4545 64.9857C38.933 64.1451 38.4091 63.2549 38.0016 62.3639C37.5138 61.473 37.2931 60.4354 36.9223 59.4971C36.5515 58.2625 36.5194 56.831 36.2236 55.549C36.1508 55.1032 36.0006 54.6581 35.702 54.3619L34.0192 52.5739C33.3813 51.8807 32.8597 50.9898 32.6 50.0033C32.4143 49.5071 32.5301 48.8672 32.4957 48.2755C32.5714 47.7823 32.6098 47.3402 32.8018 46.8981C33.2185 45.9147 34.0456 45.4282 34.9116 45.4854C35.3627 45.438 35.6997 45.7846 36.0734 45.9854C36.6747 46.3823 37.1212 47.0282 37.4949 47.7703C37.6084 47.3756 37.5356 46.9297 37.4995 46.5357C37.2765 45.5966 37.0558 44.7094 36.9464 43.723C36.9148 42.6892 37.1791 41.7027 37.7104 40.9674C38.0113 40.7231 38.2755 40.4298 38.6126 40.4298C38.9135 40.484 39.2923 40.4366 39.4012 40.8306C39.2505 41.1742 38.7994 40.8757 38.5352 41.0697C37.7832 41.5599 37.6668 42.6922 37.6984 43.6786C37.7345 44.1237 37.7712 44.614 38.1082 44.7666C39.3451 45.5621 40.696 46.0139 42.0865 46.3703C42.9858 46.5259 43.9247 46.532 44.8269 46.7327C45.9543 46.8921 47.0433 47.0951 48.1713 47.153C49.1852 47.159 50.1625 47.0665 51.1397 46.9267C52.3428 46.7357 53.437 46.1508 54.6011 45.8162C55.3915 45.6733 56.1435 45.5297 56.9683 45.4891C57.8728 45.444 58.7365 45.5493 59.6387 45.4538C60.2422 45.3613 60.8418 45.5139 61.4791 45.4666L61.5204 45.3711L61.2562 45.3681C61.145 45.4185 61.0309 45.2696 60.9169 45.317L60.4291 45.2658L60.0921 45.1132L59.3768 45.1576C58.8529 45.1034 58.2849 45.0531 57.8005 44.8012C57.6498 44.7027 57.4629 44.8493 57.3472 44.9478C56.4467 45.2373 55.4695 44.9831 54.7198 44.3877L54.3438 44.4831C53.8176 44.9703 53.2501 45.4598 52.6099 45.5553C52.0081 45.5012 51.334 45.5463 50.844 45.1485C49.9441 45.2914 48.9279 45.3839 48.1398 44.7854C47.9552 44.6839 47.8417 44.2892 47.5821 44.4358C46.4902 44.3305 45.6293 43.4877 44.8435 42.5937C44.5815 42.4441 44.2055 42.4915 44.0187 42.196C43.8324 42.0937 44.0577 41.9479 43.9826 41.7982C43.1194 41.4005 42.2579 40.408 41.812 39.3193C41.7753 39.2209 41.8504 39.075 41.7782 38.9727C41.2904 38.4765 40.8416 37.8818 40.5436 37.1404C40.6937 36.7999 41.0697 36.9968 41.295 36.8029C41.2589 36.5074 41.072 36.2593 40.9608 36.0112C40.9242 35.8645 40.774 35.7119 40.9242 35.5653C41.4142 35.5209 41.8653 35.5721 42.3525 35.5751C42.4281 35.6262 42.4665 35.4796 42.5055 35.3811C42.5416 35.333 42.6196 35.136 42.7314 35.2345C43.3303 35.3871 43.9705 35.4856 44.4944 35.8871C44.7564 36.1352 44.9816 36.4818 45.2413 36.5833C45.9566 36.6375 46.5561 37.0352 47.2324 37.2871C47.8314 37.5352 48.3582 38.0344 48.9571 38.381C49.1079 38.5336 49.3308 38.4833 49.481 38.6833C50.1579 38.5404 50.9483 38.5946 51.584 38.8938C52.1514 38.6991 52.6391 38.4577 53.0925 38.066C53.6187 37.4773 54.2228 37.0893 54.8264 36.6472C55.0132 36.4532 54.9794 36.0585 55.2436 35.8615C55.7727 35.3239 56.4129 34.9834 56.9752 34.5916L57.4675 34.1022C57.6572 33.9082 57.8435 33.7104 57.9966 33.4653C57.8464 33.2653 57.6229 33.0202 57.4337 32.8233V32.724C57.7759 31.9383 58.4161 31.6932 58.9813 31.3022L58.9062 31.1556C58.0086 30.4594 57.1087 29.4662 56.551 28.2286C56.0294 26.9941 55.6219 25.7121 55.7022 24.1821C55.7795 23.7393 55.7434 23.2468 55.9326 22.8521C55.9716 22.6581 56.085 22.413 56.01 22.2603C55.7847 22.2122 55.4815 22.5054 55.372 22.1618C55.4087 21.8145 55.5617 21.4709 55.5663 21.0258C55.1514 21.2709 54.698 21.4649 54.2859 21.5604C54.1351 21.6077 53.9099 21.707 53.8348 21.5573C53.8371 21.1626 54.0268 20.8664 54.1764 20.5709C54.1764 20.5228 54.1793 20.3769 54.1036 20.3769C53.6112 20.6183 53.0461 20.8123 52.5222 20.9559C50.7546 21.5378 48.8356 21.8182 46.9172 22.0024L42.3336 22.0212C42.2579 22.0694 42.2218 21.9227 42.1828 22.0212L40.5287 21.9611C38.6126 21.9964 36.7331 21.6844 34.9311 21.328L34.1814 21.1784C33.3933 21.1213 32.678 20.9686 31.9283 20.816C30.4249 20.5611 28.8847 20.3514 27.3057 20.3897L25.0886 20.5709L23.9245 20.7619C22.193 21.1431 20.65 22.0212 19.1053 23.0934C18.1252 23.4791 17.0729 23.7716 15.9449 23.5648C15.4187 23.4626 14.931 23.3611 14.4438 23.1099C12.6801 22.5085 10.9921 21.6077 9.38211 20.5138C8.48223 19.9153 7.62076 19.1709 6.75986 18.4228C5.78719 17.383 4.81223 16.4409 3.95362 15.1492C2.94485 13.5681 2.27539 11.8373 1.98422 9.814C1.68846 8.37945 1.771 6.65468 2.15158 5.28027C2.76029 3.65775 3.92955 2.33448 5.31949 2.245C6.56097 2.25102 7.64827 2.85552 8.43122 4.09007C8.84333 4.83141 8.98891 5.72237 9.02273 6.65768C9.02044 7.44714 8.75391 8.23584 8.97688 8.97718C9.35001 9.37191 9.61195 9.86814 9.87446 10.3614C9.94668 10.5583 9.98336 10.8546 10.1725 10.905C10.4734 10.8095 10.5485 10.3162 10.6626 9.9734C10.7789 9.33356 11.1205 8.54486 10.7835 7.8539C10.4855 7.3103 10.1117 6.76595 10.0028 6.12311C9.81829 5.08629 9.48356 4.14797 8.96197 3.25701L8.51375 2.56304ZM77.9623 2.20372C77.0263 1.26238 75.559 1.74207 74.4706 1.93004C73.6377 2.17214 72.8496 2.51198 72.0954 2.99919C70.4779 4.02323 68.8552 5.14651 67.4968 6.91264V6.96C67.9089 7.01113 68.2849 6.91564 68.6609 6.72166C68.6976 6.67354 68.8501 6.62618 68.889 6.72467C68.9229 7.463 68.6563 8.00359 68.5423 8.64643C68.5423 8.84342 68.4282 9.0374 68.54 9.18702L69.8594 8.30584C69.9706 8.26148 70.0847 8.01336 70.2348 8.21035C70.3105 8.36298 70.3076 8.50959 70.2326 8.65621C70.0434 9.14567 70.0044 9.69002 69.8881 10.2306C69.8497 10.4757 69.8136 10.7238 69.8858 10.9216L70.6017 10.4314C70.8659 10.3359 71.0184 9.89377 71.278 9.99528C71.4282 10.2434 71.2757 10.5366 71.3508 10.8321L71.1955 11.9644C71.6466 11.7734 72.0248 11.4306 72.4008 11.0359C72.4788 10.9877 72.59 11.0359 72.6267 11.1374C72.5149 11.5802 72.3986 12.0727 72.4714 12.5659L72.5103 12.7125C72.7356 12.4674 72.9614 12.1238 73.2256 11.8787C73.7908 11.3411 74.2442 10.705 74.8506 10.1675L74.9646 9.52762C75.0013 9.378 75.0787 9.13289 75.042 8.93289C74.1037 8.78327 73.393 7.5427 73.0222 6.55625C72.9104 6.30814 72.8353 6.0119 72.6118 5.86228C72.6118 5.81492 72.6118 5.76379 72.6507 5.6653L73.2159 5.17508C74.0069 4.24653 75.0254 3.46384 76.2285 3.86759C76.6406 4.06533 77.1622 4.36758 77.3123 5.00666C77.2734 5.15328 77.1599 5.20365 77.0481 5.15328C76.3741 4.50743 75.2461 4.59915 74.6058 5.13749C74.4941 5.23598 74.3049 5.33147 74.3049 5.48034C74.6419 5.8277 74.9016 6.32092 75.1635 6.76903C75.3865 7.36075 75.872 7.56149 76.4004 7.46601L76.8905 6.97579L76.8177 6.33671C76.973 5.69687 77.4992 5.40139 77.9503 5.25779C78.1784 4.47209 78.3337 3.58414 78.2243 2.69694L77.9623 2.20372ZM91.2828 72.551H3.55123V70.4165H6.10241C6.21647 70.318 6.21418 69.9834 6.17807 69.8849C5.69259 68.8954 5.58598 67.6609 5.62725 66.4301C5.63241 65.6406 5.7459 64.903 5.82385 64.1647L6.01758 62.6851L6.29213 60.2257C6.33282 59.3859 6.41077 58.6002 6.45204 57.7604C6.42052 56.4303 6.50019 55.1476 6.54146 53.8146C6.62628 52.0432 7.49464 50.668 8.43807 49.4402C9.04219 48.8545 9.7214 48.4636 10.3977 48.126C11.1887 47.8335 11.8679 47.2478 12.5104 46.6117C13.4539 45.187 13.6115 43.2682 13.8832 41.4449L14.046 38.4382L14.1256 37.2548C14.2082 35.3368 14.6277 33.5609 15.3872 31.9384C15.6514 31.4008 16.0664 30.9106 16.4424 30.4685C16.447 29.9279 16.3742 29.3362 16.5633 28.843C16.6023 28.5979 16.8671 28.4039 16.7163 28.1558C16.1535 27.9009 15.5156 27.8024 14.9527 27.5513C13.3765 26.9498 11.8387 26.2468 10.376 25.2513C8.57964 23.9085 6.8183 22.4672 5.1349 20.7777C3.71115 19.3394 2.40375 17.456 1.47235 15.5282C0.839571 14.0456 0.317987 12.4644 0.138585 10.7396C-0.115901 8.91334 0.00274445 6.98857 0.310536 5.26756C0.538657 4.38337 0.880839 3.54655 1.29811 2.76085L2.0524 1.68193C2.50577 1.23983 2.95915 0.702249 3.52429 0.508268C3.93698 0.310528 4.3124 0.0691803 4.72738 0.0721878C5.17846 0.0240686 5.66852 -0.0676587 6.08063 0.081962C6.56839 0.135344 7.01948 0.336092 7.47056 0.53308C7.91935 0.635333 8.29535 1.03608 8.70746 1.28118C9.75521 2.42326 10.5748 3.90894 10.9824 5.53823C11.1669 6.52392 11.9161 7.1224 12.0983 8.06073C12.2462 8.65244 12.0571 9.19379 11.904 9.73438C11.4873 10.7178 11.2202 11.799 10.6138 12.6328C10.4636 12.7824 10.3129 12.8809 10.1627 12.7794C9.48869 12.3787 9.26802 11.3411 8.85763 10.6028C8.26153 9.70881 7.88783 8.62387 7.96807 7.39307C8.04545 6.84873 8.12283 6.20964 8.05004 5.66529C7.90216 4.97508 7.49234 4.28112 6.96617 3.9315C6.55636 3.63526 6.03019 3.53076 5.50345 3.47963C4.64025 3.57211 3.84699 4.10969 3.35464 5.09237C2.97634 5.87506 2.8961 6.81414 2.81872 7.79983C2.73619 9.76971 3.25548 11.3982 3.92437 12.9832C4.55772 14.3162 5.45759 15.4072 6.3546 16.4508C6.87905 16.8959 7.36395 17.4432 7.89012 17.841C9.04964 18.9327 10.3255 19.7311 11.5985 20.4311C12.7993 21.1273 14.1113 21.5319 15.3872 22.0341C16.1776 22.286 17.1525 22.3875 17.9435 22.101C19.3747 21.4679 20.7303 20.5424 22.1615 19.9093L23.9291 19.3304C25.4721 19.0439 27.1262 18.859 28.7775 19.0184L29.9055 19.174C31.1063 19.3808 32.3478 19.5372 33.5876 19.6928C34.4869 19.8966 35.3867 20.0011 36.2889 20.2048C37.9798 20.6093 39.709 20.4274 41.475 20.5356C42.4132 20.692 43.3521 20.5484 44.2932 20.5582L48.353 20.386C50.4582 20.2048 52.4884 19.674 54.334 18.6522C55.0109 18.3116 55.6511 17.774 56.3303 17.2876C57.2715 16.4026 58.2172 15.6748 59.1245 14.6433C59.9516 13.7117 60.8223 12.8298 61.6516 11.9486C63.3861 9.98926 64.9382 7.83216 66.7477 5.92318C67.7295 4.94275 68.6368 3.81346 69.7305 3.13302L71.3485 2.00974C72.253 1.47216 73.2302 1.03608 74.2104 0.698489C75.6754 0.409022 77.482 0.129329 78.6805 1.41802C78.8284 1.76463 79.1677 1.66914 79.4296 1.72027C80.0292 1.82177 80.5937 2.07365 81.1543 2.32176C82.2066 2.72551 83.2183 3.37136 84.1159 4.2142C84.7922 4.26833 85.3912 5.01268 85.6147 5.80213C86.0268 6.05326 86.4005 6.40362 86.7765 6.74722L87.2975 7.39307C87.8993 7.69232 88.5373 8.04193 89.0589 8.63666L89.6578 9.57573C89.7312 10.072 90.1038 10.3231 90.3296 10.6697C90.4775 11.211 90.8512 11.6088 90.7761 12.2479C90.6958 12.8877 90.47 13.5268 90.0143 13.9659L89.4125 14.5546C88.9929 15.5884 88.5396 16.6192 87.8581 17.5041C87.5961 17.9432 87.1061 17.9395 86.7301 17.9876C86.5048 17.8891 86.2429 17.9334 86.0537 18.0831C85.6388 18.7191 85.1464 19.4063 84.4695 19.4003L84.4311 19.3522C84.3606 18.8086 84.3629 18.1688 84.552 17.6755C84.3658 17.3801 84.101 17.774 83.8367 17.771C83.6866 17.6725 83.7639 17.3733 83.5387 17.3733C83.463 17.3733 83.3495 17.4718 83.3128 17.3733C83.2767 16.9786 82.9368 16.8771 82.7529 16.6763H82.7139L82.6703 18.1049C82.668 18.9454 82.738 19.7853 82.7746 20.6221C82.7746 20.6695 82.7746 20.7206 82.7357 20.768C82.3986 20.6221 82.0616 20.3198 81.7607 20.2206V20.2717C81.9837 20.8161 82.3963 21.0612 82.7334 21.4582C82.8446 21.3627 82.9225 21.1183 82.9609 20.9206C83.075 20.4755 83.0778 19.9341 83.2303 19.492C83.49 19.6417 83.7158 19.9883 83.9387 20.2845C84.0889 20.7777 84.2391 21.274 84.2735 21.8657C84.2712 22.2093 84.0453 22.601 84.2683 22.9476C84.4162 23.1957 84.5669 23.495 84.489 23.8386C84.3388 24.5288 84.1474 25.3145 83.5794 25.6069C83.0142 25.9987 82.2651 25.7949 81.6638 25.6423C81.2512 25.4927 80.8024 25.1934 80.388 25.4385C80.2349 25.4867 80.1237 25.5851 80.0848 25.731C80.0481 25.9761 80.1598 26.1739 80.196 26.3708C80.788 28.3467 81.1572 30.373 81.4867 32.4918C81.5566 33.2331 81.5544 34.0699 81.5131 34.8594C81.4741 35.6007 81.2827 36.2398 81.2053 36.9781C80.369 39.6826 79.4199 42.2915 77.9428 44.5471C77.7904 44.8907 77.4144 45.1358 77.5267 45.5298C77.897 46.6659 78.1566 47.8019 78.4524 48.8869L79.0055 51.2567C79.374 53.083 79.6675 54.9093 80.075 56.6882C80.6304 58.8611 81.2586 60.9858 82.4181 62.8159C82.7551 63.3625 83.279 63.5632 83.7691 63.3662C84.6346 63.1753 85.4594 63.4294 86.095 64.1737C86.7301 64.7211 87.0671 65.4624 87.6638 66.0579C88.0787 66.2549 88.3407 66.7511 88.5636 67.2443C89.3133 67.6925 89.6091 68.7812 89.5678 69.818C89.5294 69.9646 89.4538 70.1616 89.5266 70.3593L89.5678 70.4165H91.2828V72.551Z" fill="white"/>
<mask id="mask0_0_517" style="mask-type:luminance" maskUnits="userSpaceOnUse" x="74" y="76" width="15" height="16">
<path fill-rule="evenodd" clip-rule="evenodd" d="M74.4992 76.9717H88.0478V91.3766H74.4992V76.9717Z" fill="white"/>
</mask>
<g mask="url(#mask0_0_517)">
<path fill-rule="evenodd" clip-rule="evenodd" d="M81.1714 79.3895C80.1913 79.4339 79.2891 79.6248 78.4987 80.2105C77.3295 81.0887 76.4955 82.6631 76.6044 84.4864C76.7087 86.36 77.9433 87.8968 79.2192 88.5457C80.267 88.899 81.4701 89.1539 82.5975 88.8163C83.2016 88.6223 83.8395 88.4284 84.368 87.9412C85.3453 87.1585 86.0302 85.8322 85.9981 84.3052C86.0004 83.1691 85.7436 82.1353 85.108 81.2917C84.8099 80.9932 84.548 80.5474 84.2104 80.3474C83.3128 79.6504 82.2215 79.4978 81.1714 79.3895ZM82.2318 77.0318C83.6962 77.2897 85.0862 77.9386 86.2434 79.2273C86.8424 79.9716 87.2883 80.7167 87.662 81.6039C88.0328 82.743 88.179 84.1715 87.909 85.4504C87.7566 86.2391 87.5674 86.9775 87.2258 87.6647C86.4297 89.2842 85.1102 90.312 83.8304 90.8977C82.9637 91.1834 82.0616 91.4255 81.1227 91.3683C78.6036 91.5022 76.2795 89.9045 75.0523 87.0887C74.827 86.5925 74.7176 86.0993 74.6058 85.5587L74.4992 84.3241C74.5089 81.8107 75.6805 79.5521 77.3392 78.2318C78.3967 77.4491 79.5631 77.013 80.8419 76.9717L82.2318 77.0318Z" fill="white"/>
</g>
<path fill-rule="evenodd" clip-rule="evenodd" d="M7.2466 76.9631V91.2327H16.7761V88.8779H9.28135V76.9631H7.2466Z" fill="white"/>
<path fill-rule="evenodd" clip-rule="evenodd" d="M39.9396 76.9828V91.2299H51.7853V88.8788H41.897V85.3729H49.7792V82.9579H41.897V79.4805L51.7417 79.4737V76.9768L39.9396 76.9828Z" fill="white"/>
</svg>
